<?xml version="1.0" encoding="UTF-8"?>
<svg xmlns="http://www.w3.org/2000/svg" viewBox="0 0 1080 1080">
  <defs>
    <style>
      .cls-1 {
        fill: #fff;
      }

      .cls-2 {
        fill: none;
      }
    </style>
  </defs>
  <rect class="cls-2" width="1080" height="1080"/>
  <g id="Layer_1" data-name="Layer 1">
    <g id="Layer_10" data-name="Layer 10">
      <path class="cls-1" d="M509.26,492.76c7.19,3.81,12.76,9.17,16.7,16.05,3.94,6.89,5.92,14.84,5.92,23.86s-1.97,16.86-5.92,23.79c-3.94,6.93-9.53,12.31-16.77,16.12-7.24,3.81-15.62,5.72-25.15,5.72h-34.19v-91.26h34.19c9.62,0,18.03,1.91,25.22,5.72ZM502.24,552.17c4.68-4.59,7.02-11.09,7.02-19.5s-2.34-14.95-7.02-19.63c-4.68-4.68-11.23-7.02-19.63-7.02h-10.53v53.04h10.53c8.41,0,14.95-2.29,19.63-6.89Z"/>
    </g>
    <g id="Layer_9" data-name="Layer 9">
      <path class="cls-1" d="M602.99,551.17h-44.12c.3,3.95,1.58,6.97,3.82,9.06,2.24,2.09,5,3.14,8.27,3.14,4.86,0,8.25-2.05,10.15-6.16h20.75c-1.07,4.18-2.98,7.94-5.76,11.29-2.78,3.34-6.25,5.97-10.43,7.87-4.18,1.9-8.85,2.85-14.02,2.85-6.23,0-11.78-1.33-16.64-3.99-4.87-2.66-8.66-6.46-11.4-11.4-2.74-4.94-4.1-10.72-4.1-17.33s1.35-12.39,4.05-17.33c2.7-4.94,6.48-8.74,11.34-11.4,4.86-2.66,10.45-3.99,16.76-3.99s11.63,1.29,16.42,3.88c4.79,2.58,8.53,6.27,11.23,11.06,2.7,4.79,4.05,10.37,4.05,16.76,0,1.82-.11,3.72-.34,5.7ZM583.38,540.34c0-3.34-1.14-6-3.42-7.98-2.28-1.97-5.13-2.96-8.55-2.96s-6.02.95-8.27,2.85c-2.24,1.9-3.63,4.6-4.16,8.09h24.4Z"/>
    </g>
    <g id="Layer_8" data-name="Layer 8">
      <path class="cls-1" d="M624.64,576.37c-4.33-1.9-7.75-4.5-10.26-7.81s-3.92-7.01-4.22-11.12h19.27c.23,2.21,1.25,3.99,3.08,5.36s4.06,2.05,6.73,2.05c2.43,0,4.31-.47,5.64-1.42,1.33-.95,2-2.18,2-3.71,0-1.82-.95-3.17-2.85-4.05-1.9-.87-4.98-1.84-9.23-2.91-4.56-1.06-8.36-2.18-11.4-3.36-3.04-1.18-5.66-3.04-7.87-5.59-2.21-2.54-3.31-5.98-3.31-10.32,0-3.65,1.01-6.97,3.02-9.98,2.01-3,4.98-5.38,8.89-7.12,3.91-1.75,8.57-2.62,13.96-2.62,7.98,0,14.27,1.98,18.87,5.93,4.6,3.95,7.24,9.2,7.92,15.73h-18.01c-.3-2.2-1.27-3.95-2.91-5.24-1.64-1.29-3.78-1.94-6.44-1.94-2.28,0-4.03.44-5.24,1.31-1.22.88-1.82,2.07-1.82,3.59,0,1.82.97,3.19,2.91,4.1,1.94.91,4.96,1.82,9.06,2.74,4.71,1.22,8.55,2.41,11.51,3.59,2.96,1.18,5.57,3.08,7.81,5.7,2.24,2.62,3.4,6.14,3.48,10.54,0,3.72-1.05,7.05-3.13,9.97-2.09,2.93-5.09,5.23-9.01,6.9-3.92,1.67-8.46,2.51-13.62,2.51-5.55,0-10.49-.95-14.82-2.85Z"/>
    </g>
    <g id="Layer_7" data-name="Layer 7">
      <path class="cls-1" d="M678.62,505.06c-2.17-2.01-3.25-4.5-3.25-7.47s1.08-5.57,3.25-7.58c2.17-2.01,4.96-3.02,8.38-3.02s6.1,1.01,8.26,3.02c2.17,2.01,3.25,4.54,3.25,7.58s-1.08,5.45-3.25,7.47c-2.17,2.01-4.92,3.02-8.26,3.02s-6.21-1.01-8.38-3.02ZM696.69,514.69v63.61h-19.49v-63.61h19.49Z"/>
    </g>
    <g id="Layer_6" data-name="Layer 6">
      <path class="cls-1" d="M746.79,516.52c3.38,1.82,5.98,4.22,7.81,7.18v-9.01h19.49v63.5c0,5.85-1.16,11.15-3.48,15.9-2.32,4.75-5.85,8.53-10.6,11.34-4.75,2.81-10.66,4.22-17.73,4.22-9.42,0-17.06-2.22-22.91-6.67-5.85-4.45-9.2-10.47-10.03-18.07h19.27c.61,2.43,2.05,4.35,4.33,5.76,2.28,1.41,5.09,2.11,8.44,2.11,4.03,0,7.24-1.16,9.63-3.48,2.39-2.32,3.59-6.02,3.59-11.12v-9.01c-1.9,2.96-4.52,5.38-7.87,7.24-3.34,1.86-7.26,2.79-11.74,2.79-5.24,0-10-1.35-14.25-4.05-4.26-2.7-7.62-6.54-10.09-11.51-2.47-4.98-3.71-10.73-3.71-17.27s1.23-12.27,3.71-17.21c2.47-4.94,5.83-8.74,10.09-11.4,4.25-2.66,9.01-3.99,14.25-3.99,4.48,0,8.42.91,11.8,2.74ZM750.56,534.98c-2.7-2.81-5.99-4.22-9.86-4.22s-7.16,1.39-9.86,4.16c-2.7,2.78-4.05,6.59-4.05,11.46s1.35,8.72,4.05,11.57c2.7,2.85,5.98,4.27,9.86,4.27s7.16-1.41,9.86-4.22c2.7-2.81,4.05-6.65,4.05-11.51s-1.35-8.7-4.05-11.51Z"/>
    </g>
    <g id="Layer_5" data-name="Layer 5">
      <path class="cls-1" d="M844.83,521.25c4.45,4.83,6.67,11.46,6.67,19.89v37.16h-19.38v-34.54c0-4.26-1.1-7.56-3.31-9.92-2.21-2.35-5.17-3.53-8.89-3.53s-6.69,1.18-8.89,3.53c-2.21,2.36-3.31,5.66-3.31,9.92v34.54h-19.49v-63.61h19.49v8.44c1.98-2.81,4.64-5.03,7.98-6.67,3.34-1.63,7.11-2.45,11.29-2.45,7.45,0,13.39,2.41,17.84,7.24Z"/>
    </g>
  </g>
  <g id="Layer_4" data-name="Layer 4">
    <g id="Layer_14" data-name="Layer 14">
      <path class="cls-1" d="M451.46,620.26c3.72-6.74,8.91-11.99,15.56-15.75,6.65-3.76,14.2-5.64,22.63-5.64,10.33,0,19.18,2.73,26.54,8.18,7.36,5.46,12.28,12.9,14.76,22.32h-23.31c-1.74-3.64-4.2-6.41-7.38-8.31-3.18-1.9-6.8-2.85-10.85-2.85-6.53,0-11.82,2.27-15.87,6.82-4.05,4.55-6.08,10.62-6.08,18.23s2.02,13.68,6.08,18.23c4.05,4.55,9.34,6.82,15.87,6.82,4.05,0,7.67-.95,10.85-2.85,3.18-1.9,5.64-4.67,7.38-8.31h23.31c-2.48,9.42-7.4,16.84-14.76,22.26-7.36,5.42-16.2,8.12-26.54,8.12-8.43,0-15.98-1.88-22.63-5.64-6.66-3.76-11.84-8.99-15.56-15.69-3.72-6.7-5.58-14.34-5.58-22.94s1.86-16.26,5.58-23Z"/>
    </g>
    <g id="Layer_13" data-name="Layer 13">
      <path class="cls-1" d="M555.82,683.78c-5.07-2.71-9.05-6.57-11.95-11.6-2.9-5.03-4.35-10.9-4.35-17.63s1.47-12.51,4.41-17.57c2.94-5.06,6.96-8.95,12.06-11.66,5.1-2.71,10.83-4.06,17.17-4.06s12.06,1.35,17.17,4.06c5.1,2.71,9.12,6.59,12.06,11.66,2.94,5.07,4.41,10.92,4.41,17.57s-1.49,12.51-4.47,17.57c-2.98,5.07-7.04,8.95-12.18,11.66-5.14,2.71-10.89,4.06-17.23,4.06s-12.04-1.35-17.11-4.06ZM582.62,666.5c2.67-2.78,4-6.77,4-11.95s-1.3-9.16-3.89-11.95c-2.59-2.78-5.78-4.18-9.57-4.18s-7.08,1.37-9.63,4.12c-2.55,2.75-3.83,6.75-3.83,12.01s1.26,9.16,3.77,11.95c2.51,2.78,5.66,4.18,9.45,4.18s7.02-1.39,9.69-4.18Z"/>
    </g>
    <g id="Layer_12" data-name="Layer 12">
      <path class="cls-1" d="M617.18,636.92c2.51-5.03,5.93-8.89,10.27-11.6,4.33-2.71,9.16-4.06,14.5-4.06,4.25,0,8.14.89,11.66,2.67,3.52,1.78,6.28,4.18,8.29,7.19v-30.04h19.84v85.84h-19.84v-9.28c-1.86,3.09-4.51,5.57-7.95,7.42-3.44,1.86-7.44,2.78-12.01,2.78-5.34,0-10.17-1.37-14.5-4.12-4.33-2.74-7.75-6.65-10.27-11.72-2.51-5.06-3.77-10.92-3.77-17.57s1.26-12.49,3.77-17.52ZM657.78,642.83c-2.75-2.86-6.09-4.29-10.03-4.29s-7.29,1.41-10.04,4.23c-2.75,2.82-4.12,6.71-4.12,11.66s1.37,8.87,4.12,11.77c2.74,2.9,6.09,4.35,10.04,4.35s7.29-1.43,10.03-4.29c2.74-2.86,4.12-6.77,4.12-11.72s-1.38-8.85-4.12-11.72Z"/>
    </g>
    <g id="Layer_11" data-name="Layer 11">
      <path class="cls-1" d="M756.79,659.31h-44.89c.31,4.02,1.6,7.1,3.89,9.22,2.28,2.13,5.08,3.19,8.41,3.19,4.95,0,8.39-2.09,10.32-6.26h21.11c-1.08,4.25-3.04,8.08-5.86,11.48-2.82,3.4-6.36,6.07-10.61,8-4.25,1.93-9.01,2.9-14.27,2.9-6.34,0-11.99-1.35-16.94-4.06-4.95-2.71-8.82-6.57-11.6-11.6-2.78-5.03-4.18-10.9-4.18-17.63s1.37-12.6,4.12-17.63c2.74-5.03,6.59-8.89,11.54-11.6,4.95-2.71,10.63-4.06,17.05-4.06s11.83,1.32,16.7,3.94c4.87,2.63,8.68,6.38,11.43,11.25,2.74,4.87,4.12,10.56,4.12,17.05,0,1.86-.12,3.79-.35,5.8ZM736.83,648.29c0-3.4-1.16-6.11-3.48-8.12-2.32-2.01-5.22-3.02-8.7-3.02s-6.13.97-8.41,2.9c-2.28,1.93-3.69,4.68-4.23,8.24h24.82Z"/>
    </g>
  </g>
  <g id="Layer_3" data-name="Layer 3">
    <polygon class="cls-1" points="417.85 553.04 417.85 592.51 373.89 621.96 417.85 649.95 417.85 686.91 316.93 620.49 417.85 553.04"/>
  </g>
  <g id="Layer_2" data-name="Layer 2">
    <polygon class="cls-1" points="264.51 616.98 264.51 580.52 308.45 550.55 264.51 520.58 264.51 481.11 367.39 548.55 264.51 616.98"/>
  </g>
</svg>