<?xml version="1.0" encoding="UTF-8"?>
<svg xmlns="http://www.w3.org/2000/svg" viewBox="0 0 1080 1080">
  <defs>
    <style>
      .cls-1 {
        fill: #868589;
      }

      .cls-2 {
        fill: #d1cead;
      }

      .cls-3 {
        fill: #7d857d;
      }

      .cls-4 {
        fill: #2b303b;
      }

      .cls-5 {
        fill: #676672;
      }

      .cls-6 {
        fill: #5f6268;
      }

      .cls-7 {
        fill: #302b26;
      }

      .cls-8 {
        fill: #516672;
      }

      .cls-9 {
        fill: #1e292c;
      }

      .cls-10 {
        fill: #6a7163;
      }

      .cls-11 {
        fill: #1a191f;
      }

      .cls-12 {
        fill: #7e8891;
      }

      .cls-13, .cls-14, .cls-15 {
        fill: none;
      }

      .cls-16 {
        fill: #545c59;
      }

      .cls-17 {
        fill: #474448;
      }

      .cls-18 {
        fill: #313229;
      }

      .cls-19 {
        fill: #4e4f4f;
      }

      .cls-20 {
        fill: #11182e;
      }

      .cls-21 {
        fill: #7c777a;
      }

      .cls-22 {
        fill: #3a3c39;
      }

      .cls-23 {
        fill: #a3ada5;
      }

      .cls-24 {
        fill: #0a0b0d;
      }

      .cls-25 {
        fill: #dfdecb;
      }

      .cls-26 {
        fill: #a5a5a6;
      }

      .cls-27 {
        fill: #6c7270;
      }

      .cls-28 {
        fill: #727680;
      }

      .cls-29 {
        fill: #362e31;
      }

      .cls-30 {
        fill: #bfbeb5;
      }

      .cls-31 {
        fill: #b5b6b9;
      }

      .cls-32 {
        fill: #3d4946;
      }

      .cls-33 {
        fill: #373b4f;
      }

      .cls-34 {
        fill: #7b8081;
      }

      .cls-14 {
        stroke-width: 2px;
      }

      .cls-14, .cls-15 {
        stroke: #231f20;
        stroke-linecap: round;
        stroke-miterlimit: 10;
      }

      .cls-35 {
        fill: #292732;
      }

      .cls-36 {
        fill: #354046;
      }

      .cls-37 {
        fill: #afad98;
      }

      .cls-15 {
        stroke-width: 5px;
      }

      .cls-38 {
        fill: #929ca2;
      }

      .cls-39 {
        fill: #1c201d;
      }

      .cls-40 {
        fill: #fefefe;
      }

      .cls-41 {
        fill: #929691;
      }

      .cls-42 {
        fill: #262628;
      }

      .cls-43 {
        fill: #6b6863;
      }

      .cls-44 {
        fill: #e1e2e2;
      }

      .cls-45 {
        fill: #cbcccd;
      }
    </style>
  </defs>
  <rect class="cls-13" width="1080" height="1080"/>
  <g id="Layer_1" data-name="Layer 1">
    <g>
      <g id="Generative_Object" data-name="Generative Object">
        <path class="cls-24" d="M590.92,225.61c8.81-2.15,43.39,16.28,45.58,24.82,3.19,12.4-14.55,30.86-14.44,34.3.02.56,5.01,3.59,3.61,9.93-.81,3.66-6.82,5.85-8.12,8.12-1.99,3.47-4.77,12.91-7.22,17.15-1.24,2.15-11.37,13.54-11.73,14.44-1.28,3.17.68,14.05-8.58,14.89-3.09.28-5.97-2.71-6.32-2.71-2.5.05-17.94,29.88-19.41,34.75,25.68-3.88,56.55-18.56,82.59-13.99,19.9,3.49,42.8,33.94,55.51,49.19,56.15,67.39,117.56,178.41,200.84,211.67,13.63,5.45,25.67,0,24.82,19.41-2.21,50.71-51.06,145.71-96.13,171.05-3.4,1.91-5.78,3.43-9.93,2.71-8.38-1.45-51.47-37.16-60.48-38.81-3.58-.66-18.95,4.12-24.37,4.51-51.94,3.8-108.69-51.48-142.17-87.11-17.46-18.58-30.61-42.59-54.61-53.71-16.46,32.85,23.12,47.57,17.6,81.69-4.39,27.16-26.03-3.11-40.17-6.77-3.79,8.09-14.21,29.69-25.27,27.08-10.29-2.43-33.46-38.51-36.11-38.81-.48-.05-6.47,4.33-8.12,4.51-17.59,1.97-35.91-42.02-41.52-55.06-14.19,24.64-26.68,50.17-42.88,73.57l-78.98,62.73,17.6-97.94c1.94-5.84,20.67-30.21,20.76-32.5.13-3.15-2.55-2.39-2.71-3.61-2.75-21.97,10.19-108.7,20.76-128.18,5.59-10.3,15.56-20.85,21.66-31.59,11.49-20.2,25.7-64.3,41.97-78.08,18.77-15.9,63.01-14.15,85.3-25.73,4.02-15.69,43.04-67.48,44.23-78.53.27-2.52-2.82-5.44-1.81-9.93.78-3.44,6.43-5.74,7.22-7.22.52-.97-.52-5.29,0-6.32.88-1.76,5.27-4.19,5.42-4.51.18-.39-1.88-4.1.9-8.12,1.71-2.48,5.01-2.67,6.32-4.51.19-.26-.23-3.79.9-5.42,1.48-2.13,6-3.43,6.32-4.51.13-.43-2.1-5.09,0-9.03,2.42-4.53,8.09-2.18,10.83-3.61s11.68-28.13,20.31-30.24Z"/>
        <g>
          <g>
            <path class="cls-40" d="M414.9,667.01c4.8-1.68,23.1,8.92,24.82,13.09.92,2.23.9,27.25-.45,27.53l-23.92-34.75,6.32-2.71c-.04-.47-13.18-.92-6.77-3.16Z"/>
            <path class="cls-42" d="M590.46,537.02c-2.79,12.09-19.29-.02-24.37,7.22-.3-.01-.6,0-.9,0l-6.32-4.96c3.27-3.84,7.09-7.56,9.93-11.73,1.29-1.9,1.08-5.74,1.35-5.87,2.25-1.06,8.93,4.85,11.73-5.42,3.55,9.1,6.29,5.18,7.22,5.42,4.53,1.15-.44,5.48-.45,5.87-.06,3.23.52,3.51,0,8.12-.07.61,2.08.14,1.81,1.35Z"/>
            <path class="cls-40" d="M520.96,482.87v-1.81c8.08-5.78,12.1-21.49,13.54-31.14,1.14-7.61-3.94-15.51,3.61-20.76,2.24,10.81-4.58,51.31-17.15,53.71Z"/>
            <path class="cls-40" d="M520.96,480.16c-.68,1.04-.84,1.73-.9,1.81-.38.5-4.24,4.25-5.42,3.16,2.79-2.71,5.11-6.25,6.32-9.93,2.63-8.04,1.8-20.84,6.32-26.18l-3.16,20.31c.64.15,4.78-11.29,4.96-12.19,1.05-5.13-1.69-16.16,3.61-17.15.46,12.48-4.87,29.72-11.73,40.17Z"/>
            <path class="cls-44" d="M456.87,703.11c-3.12-2.85-9.26-6.74-13.54-5.87l13.54,5.87c-3.6,2.68-3.32-1.57-8.58-1.81,2.76,3.85,7.14,1.29,4.06,5.42-1.16-2.81-4.68-3.3-7.22-4.06,1.06,2.27,5,3.45,7.22,4.06-5.09,6.82-10.13.14-9.93-.45.68-2.07,4.98,3.24,6.32,1.81-6.27-4.16-7.71-5.98-5.87-13.99l13.09,4.96-13.09-7.67c5.05,1.48,20.99,6.52,13.99,11.73Z"/>
            <path class="cls-40" d="M506.07,495.5c12.84,8.11,24.74,23.3,23.47,38.81-2.92-16.59-12-27.38-23.47-38.81Z"/>
            <path class="cls-44" d="M505.16,500.02c10.21,7.96,23.83,22.39,19.86,36.11.24-15.76-11.8-24.63-19.86-36.11Z"/>
            <path class="cls-45" d="M516,498.21c10.15,7.01,18.06,21.08,18.05,33.4-3.37-12.93-9.32-23.39-18.05-33.4Z"/>
            <path class="cls-40" d="M477.18,658.88c7.37,2.2,15.41,3.51,22.57,6.32,1.39.54,10.4,3.92,9.48,5.87-6.28-5.64-26.45-6.67-31.14-9.48-1.35-.81-2.2-.38-.9-2.71Z"/>
            <path class="cls-45" d="M478.08,655.27c1.97-.32,26.76,6.79,28.88,8.12,1.38.86,2.73,1.03,2.26,3.16-9.93-4.26-20.13-8.58-31.14-8.58-1.49-.62-1.35-2.49,0-2.71Z"/>
            <path class="cls-45" d="M521.86,498.21v-.9c9.51,6.97,15.01,18.9,17.15,30.24-3.59-5.3-4.78-12.42-8.12-18.05-2.1-3.53-6.35-7.83-9.03-11.28Z"/>
            <path class="cls-44" d="M526.83,495.5c4.6,1.09,20.01,27.88,15.35,28.88l-15.35-28.88Z"/>
            <path class="cls-26" d="M530.44,493.7l10.38,10.38,4.96,13.09c-3.62-8.97-9.34-16.05-15.35-23.47Z"/>
            <path class="cls-40" d="M460.03,706.72c3.18-1.06,8.19,1.36,11.28,2.26-2.94,4.16-17.63-.15-11.28-2.26Z"/>
            <polygon class="cls-45" points="536.76 491.89 544.43 500.47 546.69 508.14 536.76 491.89"/>
            <path class="cls-45" d="M600.39,454.88c-3.97,5.42-9.19,10.45-16.25,10.38,5.66-3.12,11.43-5.96,16.25-10.38Z"/>
            <path class="cls-45" d="M517.8,648.95c5.16.71,12.08-1.58,16.7,1.35-5.53,1.12-11.38.16-16.7-1.35Z"/>
            <path class="cls-19" d="M604.91,655.27c2.49-5,5.14-9.04,9.48-12.64-1.57,4.63-6.23,9.09-9.48,12.64Z"/>
            <path class="cls-19" d="M608.52,657.98l8.58-11.73c-.57,4.46-6.48,8.49-8.58,11.73Z"/>
            <path class="cls-26" d="M521.41,652.56c3.35.74,9.69-1.64,12.19,1.35-2.94.53-9.79.9-12.19-1.35Z"/>
            <path class="cls-44" d="M521.41,656.17c3.04.72,9.19-1.61,11.28,1.35-1.68,1.7-5.24-.43-5.87-.45-1.02-.03-6.76,1.4-5.42-.9Z"/>
            <path class="cls-19" d="M540.37,489.18c2.01,2.65,6.96,5.03,6.32,9.03-1.61-2.8-6.28-5.64-6.32-9.03Z"/>
            <path class="cls-26" d="M524.12,645.34c3.48.2,7.29-.83,10.38,1.35-3.17,1.09-7.49.21-10.38-1.35Z"/>
            <path class="cls-40" d="M501.55,646.25c2.49-.28,6.53.56,7.67,3.16-.41,1.1-7.1-2.32-7.67-3.16Z"/>
            <path class="cls-34" d="M598.59,657.98c.69-1.19.87-5.14,3.16-5.42,1.42,1.76-2.99,4.99-3.16,5.42Z"/>
            <path class="cls-40" d="M713.22,740.12c-1.81.94-4.21,2.47-6.32,3.61,1.76-1.24,3.5-3.7,6.32-3.61Z"/>
            <path class="cls-44" d="M413.09,663.4c.17-.1,3.72,1.35,3.16,2.26-1.28,2.05-5.66-.8-3.16-2.26Z"/>
            <path class="cls-40" d="M507.87,644.44c2.24-.84,3.17,1.83,1.81,2.71-.8.52-3.17-1.44-1.81-2.71Z"/>
            <path class="cls-26" d="M660.87,721.17c.57-1.21.45-2.64,2.26-3.61,1.21,2.01-1.21,2.79-2.26,3.61Z"/>
            <path class="cls-5" d="M521.86,497.31v.9c-.49-.64-3.06-1.45-2.71-3.16,1.22-.88,2.41,2.04,2.71,2.26Z"/>
            <path class="cls-40" d="M630.18,687.77c.11-.13-.05-2.19,1.35-2.71,1.65,1.57-1.3,2.57-1.35,2.71Z"/>
            <path class="cls-26" d="M657.26,719.36c.1-.11-.05-2.2,1.35-2.71,1.67,1.53-1.29,2.57-1.35,2.71Z"/>
            <path class="cls-17" d="M540.37,482.87c1.85-.03,3.15,2.17.9,1.81-.17-.03-1.81-1.34-.9-1.81Z"/>
            <path class="cls-19" d="M713.22,740.12c.44-.23,1.38-2.02,2.71-.45l-2.71.45Z"/>
            <path class="cls-34" d="M604.91,655.27c-.1.11.05,2.2-1.35,2.71-1.68-1.52,1.28-2.56,1.35-2.71Z"/>
            <path class="cls-16" d="M520.96,481.06v1.81c-.66.13-1-.24-.9-.9.06-.08.22-.76.9-1.81v.9Z"/>
            <g>
              <path class="cls-40" d="M420.32,636.32c.43-.11,8.85,1.07,8.58,2.26-2.98.28-7.53-2.13-9.48,1.35l13.09,1.35c0,1.76-14.46-1.62-14.89,2.26l16.7,1.35c-4.94,1.99-14.15-1.96-17.6,2.26l19.41.45c-6.92,1.19-15.21-.5-21.21,3.16,18.2-2.37,35.59-1.62,53.26,3.61l-13.09-5.87,13.09,3.16-2.26-3.16c5.28-3.28,4.69,8.79,3.16,9.48-.5.22-8.28-4.15-9.93-4.51-15.07-3.31-30.56-3.32-45.58.45,10.41.24,20.65-2.3,31.14-1.35,2.44.22,23.56,5.36,24.37,6.32.7.82.8,4.77,0,5.42-.88.71-17.58-5.86-21.66-6.32-2.49-.28-30.24-.34-30.24,1.35,17.35-.85,34.92-.57,51,6.77v1.81c-13.51-5.97-30.1-9.51-44.68-5.87,10.92.76,34.63.23,43.78,6.77,7.14,5.1-15.26-3.41-16.25-3.61-6.16-1.25-13.1-1.71-19.41-1.35,12.51,2.54,26.13,2.62,37.01,9.93l-35.2-7.22c5.3.69,32.15,6.32,34.3,9.93.54.91-.12,3.29-1.81,1.81-6.76-3.56-15.57-7.32-23.47-7.22,4.79,2.73,20.49,5.45,23.92,8.58,8.34,7.6-12.64-3.3-13.54-3.61-3.23-1.11-8.74-2.57-12.19-2.26l26.18,11.73c.14,3.82-8.57-3.69-9.48-4.06-4.4-1.8-9.32-3.18-13.99-4.06,3.02,2.47,21.92,8.09,22.57,11.73.1.55-5.48,7.12-4.96,9.48-6.88-6.51-22.76-5.69-17.15-17.15l18.05,8.12c2.67.04-.6-2.49-.9-2.71-4.34-3.11-16.36-5.18-18.05-6.32-.3-.2-.93-4.76-3.61-6.32-5.29-3.08-28.33-12.77-29.34-17.6-.45-2.15,9.03-19.96,10.38-20.31Z"/>
              <path class="cls-24" d="M425.73,654.37c14.48-.27,30.25-.28,42.88,7.67-17.84-5.98-35.98-7.95-54.61-4.96l11.73-2.71Z"/>
              <path class="cls-19" d="M444.69,684.16l17.6,7.67c.18,3.05-15.91-6.62-17.6-7.67Z"/>
              <path class="cls-42" d="M444.69,687.77c5.39.95,12.61,4.17,15.8,8.58l-15.8-8.58Z"/>
            </g>
            <path class="cls-39" d="M452.36,706.72c-2.22-.62-6.16-1.79-7.22-4.06,2.55.76,6.06,1.25,7.22,4.06Z"/>
            <g>
              <path class="cls-40" d="M813.42,806.92c25.1-17.63,40.52-45.13,55.96-70.86l-7.22,7.22,7.67-17.6c-13.39,30.67-35.33,55.84-56.42,81.24-.11-.14-2.26-.25-2.71-2.26,17.63-18.54,38.17-39.25,46.49-63.64-13.91,21.12-29.3,41.37-48.29,58.22l11.28-8.58c-3.81,6.45-11.13,19.61-17.6,8.58,23.83-16.17,41.59-40.48,53.71-66.34-15.63,24.08-32.94,47.41-55.06,65.89l-32.04-18.5c.07-.76,12.33-4.83,13.99-5.87,18.46-11.48,42.9-45.53,52.8-63.64,1.28-2.34,11.66-24.34,10.38-24.82-9.24,15.49-15.9,33.7-29.34,46.49l26.63-51.9c-24.24,46.9-45.73,95.46-105.61,100.19-48.14,3.8-100.15-45.15-131.34-78.08-19.53-20.62-35.73-49.26-62.28-60.48,6.42-3.13,8.05,2.24,8.58,2.26.34.01.4-4.15,4.51-3.61l.9,6.32,2.71-6.32v7.22l3.61-7.22v8.12l2.71-7.22-.9,9.03,5.42-9.93-3.61,12.64,6.32-13.54-3.61,14.44,7.22-14.44-5.42,17.15,9.03-17.15c-1.12,5.81-7.51,11.94-5.87,17.6l4.96-12.19-2.26,11.28c2.38-3.91,2.87-10.86,7.22-12.64-2.47,7.12-7.89,14.29-6.77,22.11,2.19-5.24,3.48-13.91,6.77-18.5.21-.3,2.75-3.57,2.71-.9-1.32,1.36-8.87,17.03-6.77,17.6l13.54-25.27c-1.68,8.89-12.53,17.48-10.38,26.63,2.21-7.23,4.63-16.07,10.83-20.76-2.57,6.93-9.62,14.35-8.12,21.66,2.06-6.06,4.14-12.79,9.03-17.15-1.85,8.2-9.3,15.16-8.58,23.92,2.12-4.85,3.71-12.42,6.77-16.7.21-.3,2.75-3.57,2.71-.9l-6.77,16.7c3.1-4.56,4.87-9.62,7.67-14.44-2.41,5.92-4.22,13.95-5.42,20.31l8.58-18.5-6.77,19.41,8.58-17.6-4.51,18.05c2.48-7.84,4.96-14.68,9.48-21.66l-8.12,25.73c1.5-.61,6.76-21.6,8.12-18.96,1.12,1.98-7.93,19.8-4.96,20.31l9.93-22.57c3.72-.4-4.39,11.55-4.96,13.09-1.63,4.39-3.34,9.72-3.61,14.44l8.58-20.31-5.87,20.31,9.48-17.6c2.03.78-9.09,18.58-7.67,22.11l10.38-18.5-7.67,19.41,10.38-15.8-6.77,15.8c3.6-2.41,4.55-7.71,7.22-10.83.32-.37,2.72-3.56,2.71-.9l-9.03,18.05,9.48-13.99c.11,5.24-7.94,10.96-5.87,15.8,2.22-5.96,5.85-11.01,9.93-15.8-2.47,6.73-6.98,11.64-9.03,18.5,3.46-3.93,5.48-9.63,9.03-13.54.35-.39,2.71-3.56,2.71-.9l-9.93,17.15,10.38-14.89-5.87,15.8,11.28-17.6-8.58,15.8,9.93-9.03-9.03,14.44c3.57-2.99,5.2-8.33,8.12-11.73.32-.37,2.72-3.56,2.71-.9l-9.03,15.35,13.09-16.7-10.38,17.6,13.54-13.54-11.73,17.15,15.8-17.6-9.48,13.99,11.73-9.93-10.83,15.35,13.54-13.54-12.64,18.96,11.28-13.99-6.77,13.09c2.67-2.18,4.87-5.11,7.22-7.67-1.95,4.17-4.65,7.53-5.87,11.73,2.68-1.74,4.05-6.7,5.87-8.58s1.93-.05,3.61-1.35c-1.52,3.25-2.49,7.39-3.61,10.83-.09.28-2.85,2.47-1.35,3.61,1.9-.88,1.02-3.01,1.35-3.61,1.89-3.38,4.28-7.92,8.12-9.48l-7.67,14.89,14.89-18.5-11.28,20.31c4.06-6.53,8.1-13.51,14.89-17.6l-12.64,18.05,12.19-13.09-9.03,16.25,13.99-13.99c-4.13,4.9-11.25,10.36-12.19,16.7.82-2.15,16.09-20.02,17.6-16.7-4.79,5.55-12.53,10.98-13.99,18.5l13.54-15.35,7.22-4.51c-1.62.86-21.86,20.96-18.05,21.66l15.35-15.35c-4,4.76-7.73,9.28-11.28,14.44-.75.78-3.71,1.74-2.26,3.61,1.76-.67,1.88-3.07,2.26-3.61,5.52-5.7,12.21-10.37,17.6-16.25l-14.89,17.6,15.8-11.28c-3.49,5-7.74,8.4-11.28,13.54-.75.78-3.71,1.74-2.26,3.61,1.76-.67,1.88-3.07,2.26-3.61,1.87-1.93,20.15-18.61,21.66-14.89-6.73,3.98-13.75,8.42-18.05,15.35,1.69-1,18.97-16.51,19.86-13.54-5.58,4.67-13.32,7.82-17.15,14.44,4.7-3.64,9.17-6.62,14.44-9.48-4.69,3.31-9.86,7.79-13.09,12.64,1.87-.75,18.27-15.76,19.41-12.19-5.98,4.33-14.9,8.28-17.6,15.8,7.06-6.79,16.56-14.79,26.63-15.8-8.58,4.42-18.24,8.32-23.92,16.7,8.75-6.49,18.18-14,29.34-15.8-5.83,3.55-12.86,5.65-18.5,9.48-1.53,1.04-8.24,5.64-7.22,8.12,26.18-27.49,59.88-8.72,88.46-30.69,12.58-9.67,27.01-30.5,30.69-46.04-28.74,68.81-88.17,60.08-139.01,20.76-11.43-8.84-43.51-39.52-46.49-52.8-.36-1.63-1.78-6.87.45-7.67,22.85,3.7,51.38-.03,59.57-25.27-20.4,38.26-45.62,15.06-74.92,9.03-29.36-6.05-98.43,8.2-131.79,10.83-21.8,1.72-41.62,6.66-56.42-12.19-2.1-2.68-10.18-14.77-3.61-11.73-2.81-.95-5.6-8.11-4.51-9.93.32-.54,4.31-.97,4.51-1.81.42-1.78-4.52-2.35-4.51-3.61,0-.87,2.72-1.53,2.71-1.81-.03-.94-3.32-5.43,0-9.48.79-1.04,2.14-2.99,2.71-3.61,5.42-5.93,23.59-16.25,31.14-17.15,2.73-.33,2.9,2.02,4.51,1.81,1.5-.2-2.73-1.8,0-3.61,2.88-1.91,38.45-15.2,44.23-17.15,11.4-3.84,33.73-11.02,45.13-8.12,6.94,1.76,14.64,20.08,15.8,26.63,1.92,10.92.43,22.09-.9,32.95-.02.14-2.05,1.04-.45,2.71.71-.47.96-1.1,1.35-1.81,6.84-12.39,2.89-48.3-9.93-58.22,1.25-1.87,2.48-.41,4.51-.45.3,0,.6-.01.9,0,12.27.54,19.63,5.14,27.53,14.44l-11.73-12.64c10.94-.48,14.68,4.11,21.66,11.73l-7.22-10.83c1.82.63,7.53,1.8,9.03,1.81,6.26.03,28.82-1.93,32.5-.9.22.06,1.5,3.21,2.71,3.61-3.68-5.5,10.13-4.27,14.44-5.42,31.16-8.28,38.02-19.06,68.15,2.71.14.1.19,3.91,2.71,2.26-.31-.81-2.62-2.11-2.71-2.26-.61-.99-3.73-3.69-2.26-4.51l9.03,5.42c2.35-2.35-6.26-4.84-5.87-5.87.33-.87,6.35,1.07,7.22,1.35,1.37.86,3.69,4.28,6.32,3.16-1.55-2.4-3.96-2.38-6.32-3.16-1.53-.97-6.27-2.69-5.87-4.51l9.48,2.26-8.58-4.06,13.54.9-21.21-4.06,15.8-4.06c-4.02.03-8.71.21-12.64.9-2.03.36-9.4,3.58-9.93,3.61-4.68.3-8.33-2.97-12.64-3.61s-9.25.91-13.09-.45c5.94-4.57,12.49-10.93,15.8-17.6-8.41,7.19-15.17,19.09-26.63,21.21,9.79-6.66,17.31-14.94,23.47-24.82.12-.13,2.27-.26,2.71-2.26-1.78-1.48-2.03,1.17-2.71,2.26-9.65,10.59-19.07,23.03-33.4,27.53,8.21-6.12,15.04-11.7,21.66-19.41,3.39-3.21,7.49-5.8,8.58-10.83-3.81,2.69-5.7,7.48-8.58,10.83-8.96,8.49-19.78,15.97-30.24,22.57l26.63-23.92,8.58-13.09c-11.67,15.98-27.03,28.02-43.33,38.81-2.43-.86,30.9-25.12,30.69-29.79-3.12,3.04-37.26,33.77-39.27,29.34l22.57-18.96-25.73,18.5c-2.89-.19,1.89-8.2,2.26-9.03,10.79-24.46,27.93-49.39,18.5-77.63-12.37,22.74-32.22,39.51-52.8,54.61,2.42,6.59,49.62-39.61,49.19-46.49-4.49,21.1-27.33,33.47-41.97,46.94-.8.74-2.09,1.22-2.71,2.26,1.55,1.66,2.57-1.3,2.71-1.35,16.13-6.79,29.13-24.07,40.62-36.56-6.28,16.03-21.99,26.92-35.2,37.01,1.35,4.99,31.32-23.05,32.04-26.63-2.24,11.19-14.92,17.59-22.11,25.73,9.03-2.2,15.04-10.67,20.31-17.6-9.52,32.56-52.65,24.87-68.15,1.35-7.27-11.03-4.94-30.17,10.83-28.88l-8.58,5.87c13.01-5.37,24.79-17.06,28.88-30.69-3.23,5.39-5.67,9.22-10.38,13.54,1.86-2.55,6.74-10.75,5.42-13.09-2.22,4.4-5.38,12.59-10.83,13.54,3.95-5.84,15.68-15.31,6.77-20.31-14.17,21.96-38.32,38.66-64.99,40.62,8.13-9.94,14.31-24.22,16.25-37.01-2.58,6.57-4.44,14.05-7.67,20.31-.76,1.48-13.66,23.53-16.25,18.05,7.55-9.29,9.31-22.63,10.83-34.3.72-5.53-1.57-13.01-.9-17.15.19-1.21,8.52-17.49,9.03-9.03-1.32-7.6-1.01-11.74,4.51-3.61l-1.35-9.48,5.87,10.38c1.5-3.34-7.06-16.24-2.26-16.7,1.64-.16,6.83,14.05,8.58,15.8,2.02-2.2-12.56-23.34-4.51-19.86,4.99,6.64,8.03,14.93,10.38,23.02,1.3-9.83-7.17-18.33-9.48-27.53,6.43,2.86,8.45,13.02,12.19,18.5l-8.58-18.5c1.56-2.3,2.42-.31,3.61.9,2.63,2.69,6.13,11.15,8.12,14.89.93,1.74,1.62,5.68,3.61,5.87.41-2.56-2.02-5.04-2.71-6.77-2.32-5.78-4.84-11.1-9.03-15.8.66-1.03,2.74-.09,3.61-.45l9.48,15.35c-.94-5.7-4.79-11.98-9.48-15.35,6.89-2.89,7.25,5.99,11.28,11.73l-5.42-12.64.9-1.81c11.28-1.52,19.37-9.62,26.18,3.61,2.33-3.28-6.1-8.07-5.42-9.03,5.13-2.96,6.81,7.12,11.28,5.87l-5.87-7.67,12.64,11.73-8.58-12.19c1.82-3.14,9.74,8.14,11.28,8.58l-7.67-9.48c9.88-4.52,13.78,5.67,20.31,11.28l-9.93-13.54,10.83,7.22-4.51-8.12c3.13-.78,8.54,1.82,9.03,1.81.81-.02.1-2.74.9-2.71,12.81.45,14.56,8.43,20.76,18.05,2.64-.72-6.81-14.12-8.58-14.89,3.49-7.33,39.59,34.74,41.52,37.01,58.7,69.09,120.16,187.69,206.26,221.6,4.13,1.63,21.91,4.78,23.02,7.67-2.06,32.94-12.12,66.72-28.43,95.23,2.19-10.25,10.1-20.83,9.93-32.5-8.95,29.3-25.5,57.65-45.58,80.79-3.64,4.2-27.06,28.08-30.24,29.34-4.58,1.81-10.5-4-13.09-7.22Z"/>
              <g>
                <path class="cls-24" d="M687.05,518.97c-6.62,7.71-13.45,13.29-21.66,19.41,14.33-4.5,23.75-16.94,33.4-27.53-6.16,9.88-13.68,18.16-23.47,24.82,11.46-2.12,18.22-14.03,26.63-21.21-3.31,6.67-9.86,13.03-15.8,17.6,3.84,1.36,8.74-.19,13.09.45s7.96,3.91,12.64,3.61c.53-.03,7.9-3.25,9.93-3.61,3.93-.69,8.62-.87,12.64-.9l-15.8,4.06,21.21,4.06-13.54-.9,8.58,4.06-9.48-2.26c-.41,1.82,4.34,3.55,5.87,4.51-.87-.28-6.89-2.22-7.22-1.35-.39,1.03,8.22,3.51,5.87,5.87l-9.03-5.42c-1.48.82,1.65,3.53,2.26,4.51-30.13-21.77-36.99-10.99-68.15-2.71-4.31,1.15-18.12-.08-14.44,5.42-1.21-.4-2.49-3.55-2.71-3.61-3.67-1.03-26.24.93-32.5.9-1.5,0-7.2-1.18-9.03-1.81l7.22,10.83c-6.99-7.62-10.72-12.22-21.66-11.73l11.73,12.64c-7.9-9.3-15.26-13.9-27.53-14.44,5.08-7.25,21.59,4.87,24.37-7.22,6.31,2.13,16.6-20.65,12.19-5.42,3.98.28,4.86-3.2,7.22-5.42,2.56,10.2,6.98,0,8.12,9.03,5.6-8.02,4.73-1.21,8.12-.9.38.04,6.84-2.73,7.22-2.71,2.37.12,2.44,3.61,5.87,1.81-.37.83-5.15,8.84-2.26,9.03l25.73-18.5-22.57,18.96c2.01,4.43,36.15-26.3,39.27-29.34.21,4.66-33.12,28.93-30.69,29.79,16.3-10.79,31.65-22.84,43.33-38.81l-8.58,13.09-26.63,23.92c10.45-6.59,21.28-14.08,30.24-22.57Z"/>
                <path class="cls-23" d="M575.12,404.34l.9-.9c.69,1.73,3.11,4.21,2.71,6.77-1.99-.18-2.68-4.13-3.61-5.87Z"/>
                <path class="cls-41" d="M612.13,511.75c-.14.06-1.16,3.01-2.71,1.35.62-1.03,1.91-1.52,2.71-2.26v.9Z"/>
                <path class="cls-41" d="M570.61,602.92c-.39.7-.64,1.34-1.35,1.81-1.6-1.67.43-2.57.45-2.71l.9.9Z"/>
                <path class="cls-24" d="M893.3,691.38c1.62-.33.57,3.45.45,4.06-4.23,21.42-17.51,48.14-28.88,66.8.8,3.32,1.94-.02,2.71-.9,2.54-2.93,4.47-7.19,6.77-10.38,2.54-.08-.1,4.24-.45,4.96-9.6,19.52-33.02,42.96-50.1,56.42,7.21-12.2,18.97-20.93,27.53-32.04,20.16-26.19,32.64-57.43,41.97-88.91Z"/>
                <path class="cls-24" d="M884.28,700.4c-9.14,40.99-30.15,82.87-65.89,107.42,31.65-30.67,53.56-64.78,65.89-107.42Z"/>
                <path class="cls-24" d="M832.37,732c-.1.22-4.6,3.57,0,1.81-7.14,13.5-28.32,37.89-41.07,46.04-1.03.66-5.07,3.96-5.87,2.26,25.01-20.7,43.75-47.33,59.57-75.37-4.49,12.5-8.08,15.3-12.64,25.27Z"/>
                <path class="cls-24" d="M865.32,703.11c-12.65,35.35-35.83,70.8-65.89,93.88,26.02-28.43,50.72-57.91,65.89-93.88Z"/>
                <path class="cls-24" d="M856.29,695.89c2.39.65-10,22.63-10.38,24.82-14.99,26.07-30.32,51.89-57.32,67.25,29.09-26.11,52.02-56.04,67.7-92.07Z"/>
                <path class="cls-24" d="M479.89,584.87c.9,0,1.81,0,2.71,0,2.66.86,3.95,13.74,4.96,16.7,3.82,11.11,11.45,21.89,6.77,33.85l-3.16-.45c9.16-12.22-6.9-32.31-9.48-46.49l-46.49,17.6c-1.86-4.41,40.07-21.2,44.68-21.21Z"/>
                <path class="cls-24" d="M834.18,750.95c-8.7,12.72-17.77,24.92-29.34,35.2l-10.38,5.87,11.73-9.93-11.73,5.42c14.67-10.7,27.28-23.76,37.91-38.36l1.81,1.81Z"/>
                <path class="cls-24" d="M795.82,654.37c-10.37,30.41-38.19,61.59-69.5,72.21,29.87-16.49,56.09-40.25,69.5-72.21Z"/>
                <path class="cls-24" d="M786.79,640.83c1.8-.04-.22,5.23-.45,5.87-10.61,29.59-43.3,63-73.57,71.76,33.74-16.18,61.09-42.01,74.02-77.63Z"/>
                <path class="cls-24" d="M839.14,711.24c-12.03,26.61-31.85,50.07-55.06,67.7,19.81-21.34,40.53-42.15,55.06-67.7Z"/>
                <path class="cls-24" d="M784.08,658.88c-10.78,28.15-39.14,56.1-69.05,62.73,29.91-11.9,54.5-33.94,69.05-62.73Z"/>
                <path class="cls-24" d="M766.93,648.05c-11.8,28.91-41.02,54.19-70.86,62.73,29.79-14.02,55.54-32.78,70.86-62.73Z"/>
                <path class="cls-24" d="M766.03,636.32c1.73-.46.61,2.63.45,3.16-8.07,27.45-46.69,62.81-74.92,68.6,33.08-13.78,61.41-37.59,74.47-71.76Z"/>
                <path class="cls-24" d="M766.03,660.69l-9.48,15.8c-15.79,15.68-33.94,33.28-56.87,37.01,26.69-11.09,50.43-28.48,66.34-52.8Z"/>
                <path class="cls-24" d="M738.95,633.61c-10.67,28.82-42.11,53.77-73.57,52.8,32.71-4.41,58.88-23.47,73.57-52.8Z"/>
                <path class="cls-24" d="M791.3,674.23c1.94,4.02-5.74,9.36-6.77,13.09-14.3,16.32-29.91,34.35-51.45,40.62,23.38-12.86,43.81-31.27,58.22-53.71Z"/>
                <path class="cls-26" d="M668.99,484.67c-3.13,4.49-6.98,8.82-9.03,13.99,4.61-1.69,7.81-7.08,11.73-10.38-3.77,6.11-5.68,7.88-10.83,12.64l-4.51.9c2.57-10.3,6.23-20.21,5.42-31.14l7.22-7.22c-.74,2.48-9.14,10.6-5.87,13.09l8.58-8.58c-1.64,2.41-12.06,13.6-8.58,15.8l7.67-7.67c-3.29,5.69-9.77,9.29-9.93,16.25,2.54-2.56,5.66-5.07,8.12-7.67Z"/>
                <path class="cls-24" d="M734.44,658.88l-9.93,11.73c-14.78,11.03-30.86,22.57-50.1,23.02,22.98-5.59,43.06-18.55,60.03-34.75Z"/>
                <path class="cls-24" d="M798.98,682.35h.9c-12.66,18.63-23.5,40.31-45.58,49.65,17.75-13.83,32.58-30.71,44.68-49.65Z"/>
                <path class="cls-24" d="M736.24,663.4l-10.83,12.64c-9.49,8.1-20.15,14.03-31.59,18.96l-13.99,2.26c21.52-5.79,40.69-18.09,56.42-33.85Z"/>
                <path class="cls-24" d="M792.21,684.16c-8.56,20.12-25.86,37.33-45.13,47.84,16.81-14.35,33.84-28.43,45.13-47.84Z"/>
                <path class="cls-24" d="M757.45,681.45c-12.69,15.71-31.88,31.53-52.35,33.85,19.17-7.29,37.89-19.29,52.35-33.85Z"/>
                <path class="cls-24" d="M697.88,643.54c-15.55,14.61-36.37,18.46-56.87,12.19,7.56-.47,15.34,1.13,23.02.45,11.06-.98,24.64-6.62,33.85-12.64Z"/>
                <path class="cls-24" d="M765.13,693.18l-10.83,12.64c-10.41,7.5-20.28,17.63-33.85,18.5,16.43-8,31.18-18.94,44.68-31.14Z"/>
                <path class="cls-24" d="M804.39,679.64h.9c-8.85,19.54-21.91,39.58-40.17,51.45,14.46-15.02,30.28-32.41,39.27-51.45Z"/>
                <path class="cls-24" d="M814.77,718.46l-11.28,16.7c-12.96,13.25-26.95,27.34-44.23,34.3,21.78-13.1,40.04-30.89,55.51-51Z"/>
                <path class="cls-22" d="M834.18,750.95l-1.81-1.81c10.64-14.62,18.26-30.83,27.08-46.49-5.69,18.17-14.72,32.86-25.27,48.29Z"/>
                <path class="cls-22" d="M728.12,642.63c-8.16,18.19-27.17,29.92-45.13,37.01l-16.7,2.26c25.7-4,46.89-18.08,61.83-39.27Z"/>
                <path class="cls-24" d="M710.97,652.56l-11.73,12.64c-11.61,6.2-25.79,12.35-39.27,11.28,19-2.81,36.85-11.1,51-23.92Z"/>
                <path class="cls-24" d="M546.69,544.25c-7.25,18.21-4.53,42.19,9.93,55.96-16.67-8.95-20.98-41.32-9.93-55.96Z"/>
                <path class="cls-42" d="M812.97,672.42c-6.2,19.79-17.94,40.97-34.3,54.16,13.98-16.51,25.6-34.24,34.3-54.16Z"/>
                <path class="cls-24" d="M737.6,673.32c-12.33,14.36-29.35,28.71-48.74,31.14,18.91-6.78,33.92-18.13,48.74-31.14Z"/>
                <path class="cls-24" d="M639.66,467.52c2.4.25-1.92,5.43-2.26,5.87-9.14,11.92-27.44,27.45-41.52,32.5,16.01-11.08,32.45-22.11,43.78-38.36Z"/>
                <path class="cls-24" d="M707.81,651.66c-13.21,12.99-31.83,20.54-50.55,19.41,18.42-2.66,35.56-8.26,50.55-19.41Z"/>
                <path class="cls-39" d="M629.73,466.62l-15.35,17.15c-2.14.92-25.24,21.32-26.63,17.6l41.97-34.75Z"/>
                <path class="cls-24" d="M726.31,677.84c2.69.28-2.52,4.33-2.71,4.51-10,9.36-25.67,17.72-39.27,19.41l41.97-23.92Z"/>
                <path class="cls-24" d="M616.19,435.93c.2,5.7-4.65,15.2-7.67,20.31-6.5,10.99-15.83,22.15-29.34,23.92,19.6-8.54,30.13-24.56,37.01-44.23Z"/>
                <path class="cls-24" d="M629.73,472.03c5.16-.66-12.54,14.7-12.64,15.35l-17.15,13.54-7.67,3.16,37.46-32.04Z"/>
                <path class="cls-24" d="M715.93,670.62c-12.69,11.22-29.44,20.05-46.94,19.41,16.5-3.11,33.12-9.84,46.94-19.41Z"/>
                <path class="cls-24" d="M640.11,474.74c-8.78,13.65-26.5,28.55-41.52,33.85,16.98-7.18,27.96-23.82,41.52-33.85Z"/>
                <path class="cls-34" d="M804.39,704.92v-4.51c3.82-6.19,7.7-11.82,10.83-18.5,1.76-3.76,7.32-22.53,8.12-23.47,1.05-1.23,1.61-.63,1.81.9.64,5.11-16.69,39.55-20.76,45.58Z"/>
                <path class="cls-24" d="M776.86,700.4c-8.28,12.24-21.22,24.11-35.65,28.43,12.64-8.48,25.24-17.19,35.65-28.43Z"/>
                <path class="cls-42" d="M617.09,447.66c-5.1,16.16-21.56,34.68-39.27,35.65,18.97-5.19,30.44-18.97,39.27-35.65Z"/>
                <path class="cls-42" d="M695.17,640.83c-12.82,11.49-28.5,14.76-45.13,9.48,16.73,1.87,30.93-.04,45.13-9.48Z"/>
                <path class="cls-24" d="M750.23,755.47c-11.77,5.19-22.6,11.5-34.3,16.7,5.69-6.08,29.15-14.5,32.5-20.31,2.69-.33,5.26.29,9.03-1.35-2.55,1.46-4.84,3.31-7.22,4.96Z"/>
                <path class="cls-42" d="M779.57,746.44c2.67.3-2.51,4.34-2.71,4.51-11.13,9.57-28.56,18.62-41.97,24.82l44.68-29.34Z"/>
                <path class="cls-42" d="M673.06,506.33l-14.44,16.25-18.5,14.89c8.44-12.55,23.77-18.94,32.95-31.14Z"/>
                <path class="cls-34" d="M579.63,453.98c.11-.87-.18-1.87,0-2.71,5.86-2.99,7.76-14.06,9.93-20.31,4.38-.02-4.34,12.32-2.26,13.09,4.92-3.32,4.97-11.17,7.67-14.89.98-1.35.95-3.17,1.81,0-3.71,11.04-8.71,17.28-17.15,24.82Z"/>
                <path class="cls-24" d="M616.64,473.84c-8.82,9.39-19.51,19.94-31.59,24.82,10.68-7.29,19.72-16.3,29.34-24.82.3-.27,1.99.23,2.26,0Z"/>
                <path class="cls-39" d="M696.07,649.86c-13.96,10.35-29.53,14.25-46.94,12.19,16.11-.56,33-4.01,46.94-12.19Z"/>
                <path class="cls-24" d="M614.84,459.4c-6.3,13.47-21.6,27.28-35.2,32.95,15.02-9.08,24.1-19.92,35.2-32.95Z"/>
                <path class="cls-24" d="M747.53,750.05c-1.59-.46-2.72,1.32-3.61,1.81-10.3,2.41-21.96,9.8-31.59,14.44,11.51-8.13,21.53-13.15,34.75-18.05,2.61-.08.1,1.34.45,1.81Z"/>
                <path class="cls-24" d="M740.76,748.24c.81-.04,2.83-.27,1.81.9l-37.46,17.6c8.37-6.29,25.21-18.02,35.65-18.5Z"/>
                <path class="cls-24" d="M736.24,746.44l-34.75,19.41c9.94-9.33,21.42-16.03,34.75-19.41Z"/>
                <path class="cls-24" d="M715.93,670.62c10.85-9.6,19.09-22.02,26.63-34.3-4.8,13.88-14.66,26.01-26.63,34.3Z"/>
                <path class="cls-42" d="M543.08,428.71c3.75,15.68-.68,32.66-9.03,46.04,5.27-14.95,11.23-29.6,9.03-46.04Z"/>
                <path class="cls-24" d="M761.07,750.95c-11.68,9.32-27.07,13.96-39.27,22.57-2.88-.16,2.52-3.48,2.71-3.61,8.11-5.45,17.6-8.8,25.73-14.44,3.55-1.57,7.25-3.01,10.83-4.51Z"/>
                <path class="cls-45" d="M586.85,609.24l-2.71,7.22-.9-.9c.19-.81.21-1.84-.9-1.81,4.75-12.7,6.92-23.1,6.77-37.01,2.25,9.67-.23,22.68-2.26,32.5Z"/>
                <path class="cls-24" d="M746.62,751.86c-3.11,5.05-26.41,13.12-32.04,18.05l7.22-6.32c7.47-3.73,14.79-7.75,22.11-11.73.81-.19,1.86.14,2.71,0Z"/>
                <path class="cls-41" d="M805.29,679.64h-.9c.85-1.8,2.88-4.3,2.26-6.32-1.59,3.49-4.83,6.18-6.77,9.03h-.9c5.8-9.08,11.07-17.82,14.89-27.98,1.9.51-7.81,23.58-8.58,25.27Z"/>
                <path class="cls-24" d="M772.8,749.15c-10.78,9.82-24.79,16.93-37.91,23.02,12.21-8.36,25.52-14.95,37.91-23.02Z"/>
                <path class="cls-22" d="M488.01,633.61c.13,0,1.46,1.21,2.26,1.35-1.87.2-6.38,3.98-6.77,4.06-.59.12.05-2.14-1.81-1.81-9.36,1.66-18.81,3.84-28.43,3.16,9.32-2.31,18.98-2.65,28.43-4.06,1.46-.22,5.97-2.71,6.32-2.71Z"/>
                <path class="cls-24" d="M757.45,681.45c8.24-10.2,14.65-22.08,21.21-33.4-3.89,13.01-11.79,23.92-21.21,33.4Z"/>
                <path class="cls-24" d="M762.87,752.76c-10.64,7.65-22.16,14.42-34.3,19.41,10.83-7.56,22.69-13.23,34.3-19.41Z"/>
                <path class="cls-42" d="M777.76,751.86c.13-.01,1.65,1.31,2.26,1.35-10.7,7.01-21.13,15.41-33.4,19.86,5.57-.95,29.27-21.02,31.14-21.21Z"/>
                <path class="cls-24" d="M580.08,592.99c.45,10.79-4.85,24.74-11.73,33.4l11.73-33.4Z"/>
                <path class="cls-42" d="M557.52,438.64c2.22.39-8.91,33.44-14.44,34.3l14.44-34.3Z"/>
                <path class="cls-24" d="M510.58,601.11c1.63-.43,9.91,29.37,8.12,32.5-3.28-10.64-5.51-21.69-8.12-32.5Z"/>
                <path class="cls-42" d="M667.64,505.43c2.17-.28.4,2.04,0,2.71-2.99,5-14.24,11.51-19.41,14.89l19.41-17.6Z"/>
                <path class="cls-41" d="M732.63,624.58l-6.77,14.89-12.19,12.19c6.97-8.57,14.52-16.73,18.96-27.08Z"/>
                <path class="cls-24" d="M615.29,599.31c2.39.38-5.79,24.34-8.12,26.18l8.12-26.18Z"/>
                <path class="cls-24" d="M620.7,599.31c-1.71,8.98-5,19.99-10.83,27.08l10.83-27.08Z"/>
                <path class="cls-24" d="M664.93,611.94c-2.93,8.77-7.41,17.27-14.44,23.47l14.44-23.47Z"/>
                <path class="cls-24" d="M628.83,602.02c1.11,2.99-9.37,26-10.83,25.27l10.83-25.27Z"/>
                <path class="cls-42" d="M582.79,601.11c-.12,9.28-4.58,18.85-9.93,26.18l9.93-26.18Z"/>
                <path class="cls-22" d="M804.39,704.92c-3.52,5.22-9.8,14.09-15.35,16.7,5.7-6.7,10.72-13.73,15.35-21.21v4.51Z"/>
                <path class="cls-24" d="M599.04,462.1c2.17-.28.4,2.04,0,2.71-1.73,2.89-17.95,13.43-19.41,10.38,7.28-3.16,13.82-7.45,19.41-13.09Z"/>
                <polygon class="cls-42" points="724.51 620.07 720.45 630.45 708.26 644.44 724.51 620.07"/>
                <path class="cls-24" d="M648.69,607.43l-12.64,25.27c1.97-9.34,8.18-16.99,12.64-25.27Z"/>
                <path class="cls-41" d="M690.21,607.43l-1.35,9.48-12.19,14.89c4.8-8.06,12.18-14.53,13.54-24.37Z"/>
                <path class="cls-22" d="M699.23,622.78c2.34-.11.9,2.05.45,3.16-1.95,4.82-11.47,15.38-16.7,17.6l16.25-20.76Z"/>
                <path class="cls-26" d="M790.85,752.76c-7.38,6.86-15.16,14.36-25.27,16.7,8.48-5.31,17.43-10.47,25.27-16.7Z"/>
                <path class="cls-27" d="M782.73,748.24c6.94-7.36,14.1-14.54,20.31-22.57-2.85,7.64-13.18,18.48-20.31,22.57Z"/>
                <path class="cls-24" d="M591.82,604.72c2.04,2.59-5.27,22.12-6.32,21.66l6.32-21.66Z"/>
                <path class="cls-26" d="M708.26,613.75c1.01,9.3-9.06,18.84-15.35,25.27l9.48-12.19,5.87-13.09Z"/>
                <polygon class="cls-42" points="603.55 478.35 591.82 490.99 583.24 495.05 603.55 478.35"/>
                <path class="cls-42" d="M668.54,499.11c-2.63,7.03-11.11,11.44-16.7,15.8,3.41-6.2,11.53-10.58,16.7-15.8Z"/>
                <path class="cls-24" d="M558.42,450.37c1.29,2.97-6.48,22.03-9.03,20.76l9.03-20.76Z"/>
                <path class="cls-24" d="M555.71,605.63c1.26-.33,6.87,19.49,5.42,21.66l-5.42-21.66Z"/>
                <path class="cls-26" d="M790.85,752.76c6.58-6.12,11.95-13.69,18.5-19.86-3.15,8.07-11.77,14.52-18.5,19.86Z"/>
                <path class="cls-24" d="M521.41,609.24c1.22-.31,6.85,21.23,4.51,23.47l-4.51-23.47Z"/>
                <path class="cls-26" d="M574.22,450.37h-.9c2.82-8.05,4.6-16.41,7.67-24.37l-3.16,16.7c-.97,2.6-2.63,5.13-3.61,7.67Z"/>
                <path class="cls-24" d="M609.42,607.43c-1.8,6.09-2.45,13.79-7.22,18.5.76-6.87,4.5-12.88,6.32-19.41l.9.9Z"/>
                <path class="cls-19" d="M671.25,614.65c-1.24,7.37-7.44,16.65-13.54,20.76l13.54-20.76Z"/>
                <path class="cls-24" d="M638.76,608.33c1.94.53-8.36,21.05-9.93,22.57l9.93-22.57Z"/>
                <polygon class="cls-24" points="651.39 611.04 645.53 625.03 639.66 631.8 651.39 611.04"/>
                <path class="cls-24" d="M623.41,604.72c1.9.51-7.15,20.19-9.03,21.66l9.03-21.66Z"/>
                <path class="cls-24" d="M596.33,604.72c.07,7.51-3.04,15.61-7.22,21.66l7.22-21.66Z"/>
                <polygon class="cls-24" points="529.54 608.33 533.6 620.52 534.05 631.8 529.54 608.33"/>
                <path class="cls-42" d="M498.85,615.56c1.39,3.84,9.03,21.07,2.26,13.09l-.45,7.67-1.81-20.76Z"/>
                <polygon class="cls-42" points="667.64 614.65 660.87 628.64 654.1 635.41 667.64 614.65"/>
                <path class="cls-42" d="M705.55,646.25c.57,3.72-18.91,15.48-19.41,13.09l19.41-13.09Z"/>
                <path class="cls-42" d="M695.17,640.83c5.57-4.99,9.44-12.02,14.89-17.15-2.17,7.13-8.84,13.13-14.89,17.15Z"/>
                <path class="cls-31" d="M697.88,527.1h-1.81c3.56-5.37,11.15-11.3,14.89-17.15-2.5,5.88-8,13.2-13.09,17.15Z"/>
                <path class="cls-24" d="M635.15,607.43c-1.41,6.88-4.71,15.73-9.93,20.76l9.93-20.76Z"/>
                <path class="cls-24" d="M628.83,611.94c1.69.55-5.4,16.47-8.12,17.15l8.12-17.15Z"/>
                <path class="cls-42" d="M526.83,612.85c1.59-.41,5.36,17.6,3.61,19.86l-3.61-19.86Z"/>
                <path class="cls-24" d="M604.91,607.43c-1.63,5.91-2.39,14.51-7.22,18.5,1.44-6.7,4.61-12.81,6.32-19.41l.9.9Z"/>
                <polygon class="cls-24" points="548.49 609.24 552.55 619.62 553 630 548.49 609.24"/>
                <path class="cls-42" d="M517.35,611.04l.9-.9c2.15,7.54,4.7,15.62,3.16,23.47-1.26-7.52-2.3-15.16-4.06-22.57Z"/>
                <polygon class="cls-22" points="561.13 599.31 563.84 625.48 560.68 616.01 561.13 599.31"/>
                <path class="cls-39" d="M571.06,440.44c1.63,6.37-3.57,14.92-6.32,20.76l6.32-20.76Z"/>
                <polygon class="cls-42" points="674.86 616.46 670.8 626.84 661.32 636.32 674.86 616.46"/>
                <path class="cls-34" d="M470.86,614.65l10.83,19.86c-5.25-5.16-9.49-12.57-10.83-19.86Z"/>
                <path class="cls-24" d="M599.94,608.33c1.53,2.56-4.38,18.8-6.32,18.05l6.32-18.05Z"/>
                <path class="cls-24" d="M535.85,610.14c1.52-.38,5.98,19.43,3.61,21.66l-3.61-21.66Z"/>
                <path class="cls-24" d="M543.98,608.33c2.27,1.79,5.7,20.74,3.61,20.76l-3.61-20.76Z"/>
                <polygon class="cls-24" points="496.14 616.46 498.39 622.33 497.04 638.12 496.14 616.46"/>
                <path class="cls-26" d="M641.01,613.75h-.9c3.07-6.87,6.14-13.62,8.58-20.76.49,7.76-4.64,14.24-7.67,20.76Z"/>
                <path class="cls-42" d="M579.63,451.27c-.18.83.11,1.84,0,2.71-1.76,1.57-2.9,4.9-5.42,4.06,4.12-4.83,5.67-11.13,7.22-17.15,3.56-.55-1.45,8.7-1.81,10.38Z"/>
                <path class="cls-42" d="M640.11,613.75h.9c-2.67,5.74-3.93,12.31-8.58,17.15.99-5.99,5.2-11.61,7.67-17.15Z"/>
                <polygon class="cls-39" points="451.01 620.07 462.74 637.22 453.26 627.74 451.01 620.07"/>
                <path class="cls-26" d="M611.23,601.11l-.9-.9c1.84-7.07,2.38-14.27,4.51-21.21.7,7.73-1.93,14.81-3.61,22.11Z"/>
                <path class="cls-45" d="M606.71,600.21h-.9c1.6-6.53,1.56-13.58,4.06-19.86.64,6.85-1.75,13.34-3.16,19.86Z"/>
                <path class="cls-24" d="M503.36,615.56c1.81,1.68,5.58,19.84,3.61,19.86l-3.61-19.86Z"/>
                <path class="cls-24" d="M584.15,616.46l2.71-7.22c-.98,4.77-1.07,14.86-7.22,16.7,1.81-2.93,3.31-6.28,4.51-9.48Z"/>
                <path class="cls-42" d="M551.65,609.24l.9-.9,4.06,18.96c-3.13-5.22-3.28-12.2-4.96-18.05Z"/>
                <path class="cls-42" d="M653.2,616.46c-.86,5.64-6.05,12.31-10.83,15.35l10.83-15.35Z"/>
                <path class="cls-19" d="M822.9,583.96l11.73,14.44c-1.54-.73-14.27-13.62-11.73-14.44Z"/>
                <path class="cls-19" d="M743.46,485.57l6.32,9.93c-7.09-9.41-.89.36-7.67.45,2.72-1.48,4.72-10.22,0-6.32l1.35-4.06Z"/>
                <path class="cls-16" d="M548.49,433.22c2.09,6.07-.59,14.1-2.71,19.86l2.71-19.86Z"/>
                <path class="cls-24" d="M506.97,617.36c2.82-.72,4.04,18.04,2.71,18.05l-2.71-18.05Z"/>
                <polygon class="cls-42" points="657.71 618.26 654.55 625.94 647.78 632.71 657.71 618.26"/>
                <path class="cls-19" d="M564.74,448.57c-.75,6.47-3.26,12.8-7.22,18.05l7.22-18.05Z"/>
                <polygon class="cls-24" points="540.37 612.85 542.62 616.91 543.98 630.9 540.37 612.85"/>
                <path class="cls-26" d="M688.85,624.58h-.9c3.53-5.4,5.39-11.58,8.58-17.15,2.77.9-6.77,15.78-7.67,17.15Z"/>
                <path class="cls-22" d="M510.58,612.85c2.78,6.54,4.07,13.68,2.71,20.76l-2.71-20.76Z"/>
                <path class="cls-27" d="M567.9,620.07c-.59-1.1-.81-1.34-.9-2.71l7.22-15.8c.86,3.24-4.14,17.33-6.32,18.5Z"/>
                <path class="cls-39" d="M455.52,619.17l9.93,15.35c-2.78-.04-12.53-14.74-9.93-15.35Z"/>
                <path class="cls-18" d="M570.61,387.18c4.69,3.37,8.54,9.65,9.48,15.35l-9.48-15.35Z"/>
                <path class="cls-42" d="M534.05,613.75c.96-.15,3.96,16.6,2.71,18.96l-2.71-18.96Z"/>
                <path class="cls-45" d="M605.36,577.64l-1.81,14.44c.25-1.68-.66-16.38,1.81-14.44Z"/>
                <path class="cls-39" d="M477.18,619.17l7.22,14.44c-2.87-4.06-7.54-8.96-7.22-14.44Z"/>
                <path class="cls-42" d="M483.5,614.65l8.12,14.44c-3.56-3.79-7.92-9.32-8.12-14.44Z"/>
                <path class="cls-19" d="M796.27,555.08c-.65-.56-13.18-9.98-9.48-11.73,3.29,3.8,6.35,7.8,9.48,11.73Z"/>
                <path class="cls-24" d="M567,617.36c.09,1.36.31,1.61.9,2.71-2.01,1.21-5.4-13.16-1.81-13.09.49,3.47.66,6.89.9,10.38Z"/>
                <path class="cls-24" d="M469.51,621.87l.9-.9c2.29,2.79,5.2,9.4,7.67,12.64-3.68-1.73-7.51-7.84-8.58-11.73Z"/>
                <path class="cls-22" d="M673.51,629.09c-1.18,1.13-3.86,4.33-5.42,4.06l9.48-13.99-4.06,9.93Z"/>
                <path class="cls-39" d="M696.07,649.86c4.31-3.19,7.79-8.64,12.64-11.28-2.96,5.26-7.6,8.33-12.64,11.28Z"/>
                <path class="cls-16" d="M480.79,618.26l8.12,13.54c-2.15-.27-10-12.89-8.12-13.54Z"/>
                <path class="cls-19" d="M573.31,450.37h.9c-1.66,4.3-1.27,9.73-5.87,12.64,1.1-4.39,3.46-8.34,4.96-12.64Z"/>
                <path class="cls-26" d="M518.25,610.14l-.9.9c-1.2-5.03-4.61-9.86-4.06-15.35,2.06,4.64,3.58,9.58,4.96,14.44Z"/>
                <path class="cls-22" d="M673.51,629.09c3.71-3.54,5.77-6.64,8.58-10.83,1.07,2.69-7.36,12.76-8.12,12.64l-.45-1.81Z"/>
                <path class="cls-24" d="M687.05,518.97c2.88-3.35,4.77-8.15,8.58-10.83-1.08,5.03-5.19,7.62-8.58,10.83Z"/>
                <path class="cls-22" d="M580.08,385.38c2.97,2.87,6.68,8.09,6.32,12.64l-6.32-12.64Z"/>
                <path class="cls-26" d="M565.64,546.05c3.01,3.45,7.49,6.28,9.03,10.83-3.01-2.42-8.14-6.96-9.03-10.83Z"/>
                <path class="cls-42" d="M466.35,622.78c1.78,3.82,5.88,7.38,6.32,11.73-2.7-2.7-6.53-7.64-6.32-11.73Z"/>
                <path class="cls-41" d="M488.47,615.56l-.9.9c-1.94-3.68-4.23-8.31-4.06-12.64,1.95,3.78,3.43,7.79,4.96,11.73Z"/>
                <path class="cls-22" d="M616.19,376.35c1.82-.04,10.48,9.17,8.12,9.93l-8.12-9.93Z"/>
                <path class="cls-24" d="M583.24,615.56c-.47,2.04-4.11,9.1-6.32,10.38,1.61-4.12,3.87-8.05,5.42-12.19,1.11-.04,1.09.99.9,1.81Z"/>
                <path class="cls-41" d="M464.09,626.39h-.9c-2.2-3.7-5.32-8.01-4.96-12.64,2.4,3.99,3.51,8.64,5.87,12.64Z"/>
                <path class="cls-22" d="M442.88,621.87c2.7,3.09,6.43,7.63,7.22,11.73-2.88-3.44-6.06-7.28-7.22-11.73Z"/>
                <path class="cls-42" d="M448.75,635.41c-2.88-3-7.29-6.05-7.67-10.83,3.27,3.11,5.22,7.16,7.67,10.83Z"/>
                <path class="cls-19" d="M571.06,546.95c3.22,1.25,7.71,5.31,8.12,9.03l-8.12-9.03Z"/>
                <path class="cls-41" d="M601.75,549.66c3.09,1.76,7.41,5.36,8.12,9.03-3.04-2.41-6.11-5.72-8.12-9.03Z"/>
                <path class="cls-26" d="M622.06,469.33l-.9-.9c2.71-3.19,5.59-6.61,8.12-9.93-2.22,3.77-3.8,7.81-7.22,10.83Z"/>
                <path class="cls-41" d="M746.17,657.08c-.57,3.44-5.37,7.98-8.12,9.93,1.74-3.99,5.12-6.91,8.12-9.93Z"/>
                <path class="cls-24" d="M707.81,651.66c1.9-1.87,4.52-7.33,7.67-9.03l-7.67,9.03Z"/>
                <path class="cls-42" d="M463.19,626.39h.9c1.95,3.31,6.18,6.2,6.77,9.93-3.54-2.77-5.43-6.16-7.67-9.93Z"/>
                <path class="cls-22" d="M448.3,623.68c1.76,3.17,5.3,7.11,5.42,10.83-1.8-2.98-6.01-6.99-5.42-10.83Z"/>
                <path class="cls-16" d="M589.11,382.67c2.52,1.89,5.77,5.65,5.42,9.03l-5.42-9.03Z"/>
                <path class="cls-19" d="M660.87,500.92c-1.7,1.57-3,4.01-4.96,5.42-2.02.04.15-3.3.45-4.51l4.51-.9Z"/>
                <path class="cls-19" d="M632.44,374.55c2.76,1.33,6.73,4.98,7.22,8.12-2.59-2.31-5.64-4.97-7.22-8.12Z"/>
                <path class="cls-41" d="M664.03,544.25c1.57-.86,7.44,2.6,6.77,4.06-1.1-.73-7.56-1.94-6.77-4.06Z"/>
                <path class="cls-45" d="M554.81,587.57c1.22-.04,2.59,7.94,1.81,8.12-.78-.96-4.68-8.03-1.81-8.12Z"/>
                <path class="cls-34" d="M706.45,435.03c1.4,3.63.02,6.86-1.81,9.93l1.81-9.93Z"/>
                <path class="cls-34" d="M593.62,551.47c1.59,2.01,5.44,4.35,5.42,7.22-2.03-1.23-5.76-4.46-5.42-7.22Z"/>
                <path class="cls-26" d="M680.73,633.61c-.43,1.09-5.85,7.11-7.22,4.06,2.7-1.11,5.15-2.98,7.22-4.96v.9Z"/>
                <path class="cls-41" d="M552.55,608.33l-.9.9c-.73-2.54-3.57-6.09-3.16-9.03l4.06,8.12Z"/>
                <path class="cls-34" d="M816.58,577.64c1.16,1.44,5.59,3.2,4.51,5.42-1.6-.43-5.51-3.32-4.51-5.42Z"/>
                <path class="cls-45" d="M868.93,627.29c2.04,1.59,2.08,5.58,0,7.22-.75-2.07-.75-5.14,0-7.22Z"/>
                <path class="cls-34" d="M719.99,452.18c3.46.54-.13,7.47-.9,7.22l.9-7.22Z"/>
                <path class="cls-18" d="M638.76,374.55c1.04-.48,5.32,3.74,3.61,4.51-1.11.37-5.31-3.74-3.61-4.51Z"/>
                <path class="cls-24" d="M845.01,706.72c.93-2.57,1.26-5.68,3.16-8.12,1.3,3-2.02,6.1-3.16,8.12Z"/>
                <path class="cls-16" d="M688.85,624.58c-1.85,2.81-2,3.61-4.51,6.32.04-2.74,2.3-4.32,3.61-6.32h.9Z"/>
                <path class="cls-3" d="M616.64,555.08l.9-.9c1.19.75,4.75,4.5,4.06,6.32-1.63-1.82-3.73-3.26-4.96-5.42Z"/>
                <path class="cls-42" d="M836.44,599.31c1.11.17,5.94,4.34,3.61,5.42-.94-1.53-4.76-3.16-3.61-5.42Z"/>
                <path class="cls-19" d="M737.14,476.55c1.46,2.76-.81,5.57-2.71,7.22-1.41-.44,2.48-6.26,2.71-7.22Z"/>
                <path class="cls-34" d="M648.69,547.86c1.69,1.35,6.25,3.41,5.42,6.32-1.04-2.07-5.74-3.78-5.42-6.32Z"/>
                <path class="cls-16" d="M660.42,545.15c2.13.75,3.92,2.83,5.87,4.06-1.41.87-6.79-2.03-5.87-4.06Z"/>
                <path class="cls-26" d="M896.91,639.93c1.98.68,1.62,7.1.9,7.22-.7-2.3-2.21-4.77-.9-7.22Z"/>
                <path class="cls-34" d="M810.71,572.23v-.9c.6.7,5.58,4.47,5.42,4.96-3.11,1.19-3.9-2.52-5.42-4.06Z"/>
                <path class="cls-7" d="M733.53,471.13c2.41.8.68,6.78-.9,6.32l.9-6.32Z"/>
                <path class="cls-17" d="M796.27,555.08c.14.12,2.66.26,3.16,1.81l.9,3.61c-.77.25-3.52-4.74-4.06-5.42Z"/>
                <path class="cls-27" d="M611.23,601.11c-.63,2.74-1.09,3.9-1.81,6.32l-.9-.9c.58-2.09,1.25-4.2,1.81-6.32l.9.9Z"/>
                <path class="cls-16" d="M772.8,527.1c.21.23,4.78,1.43,3.16,4.51-1.57.55-2.72-3.75-3.16-4.51Z"/>
                <path class="cls-45" d="M886.98,635.41c2.01.64,1.56,7.22.9,7.22-.25-2.37-2.1-4.78-.9-7.22Z"/>
                <path class="cls-17" d="M702.84,431.41c2.56.72-.19,6.51-.9,6.32l.9-6.32Z"/>
                <path class="cls-26" d="M629.28,458.49c1-1.7,1.82-5.55,4.06-6.32.28,3.14-2.71,4.55-4.06,6.32Z"/>
                <path class="cls-26" d="M731.28,545.15c2.36.77,4.76.76,6.32,3.16-2.62,1.12-4.95-2.29-6.32-3.16Z"/>
                <path class="cls-16" d="M604.91,607.43l-.9-.9c.54-2.08,1.28-4.2,1.81-6.32h.9c-.57,2.62-1.1,4.66-1.81,7.22Z"/>
                <path class="cls-36" d="M622.06,469.33c-.44,2.55-4.52,3.71-5.42,4.51,1.56-1.66,3.03-3.67,4.51-5.42l.9.9Z"/>
                <path class="cls-19" d="M733.53,671.52c1.01,2.06-2.89,4.98-4.51,5.42.21-2.21,3.29-3.7,4.51-5.42Z"/>
                <path class="cls-42" d="M781.37,537.02c1.41,1.64,4.32,3.04,2.71,5.42-.79-1.27-4.71-4.33-2.71-5.42Z"/>
                <path class="cls-45" d="M624.31,434.12c1.56.76-.45,5.6-1.81,6.32-1.67-.55,1.41-5.4,1.81-6.32Z"/>
                <path class="cls-19" d="M729.02,463.91c1.22.3-.64,5.8-1.81,6.32-.59-1.04.9-6.54,1.81-6.32Z"/>
                <path class="cls-26" d="M668.99,484.67c.84-1.2,1.89-4.97,4.06-5.42.25,2.91-2.62,3.89-4.06,5.42Z"/>
                <polygon class="cls-45" points="696.53 496.41 697.88 496.86 694.72 501.82 696.53 496.41"/>
                <path class="cls-26" d="M691.11,415.17c.66,0,1.11,6.58-.9,7.22-.99-.23.84-6.42.9-7.22Z"/>
                <path class="cls-22" d="M487.56,616.46l.9-.9c.74,1.9,2.96,4.21,2.26,6.32-1.56-1.48-2.19-3.58-3.16-5.42Z"/>
                <path class="cls-41" d="M847.27,613.75c2.62,1.81.6,3.91,0,6.32-.69-.12-.75-5.28,0-6.32Z"/>
                <path class="cls-34" d="M809.81,570.42h-.9c-1.14-1.52-3.98-3.5-3.16-5.42,1.98.62,3.58,4.92,4.06,5.42Z"/>
                <path class="cls-34" d="M714.58,446.76c1.97.16.08,6.57-.9,6.32l.9-6.32Z"/>
                <path class="cls-28" d="M752.49,501.82c1.69.71-.71,4.71-2.71,4.51l2.71-4.51Z"/>
                <path class="cls-24" d="M700.59,431.41l-1.81-.9c0-.56,1.34-3.21,1.35-4.51,1.78.62.79,4.75.45,5.42Z"/>
                <path class="cls-19" d="M802.14,560.49l1.81,3.61c-1.97,0-3.03-2.08-1.81-3.61Z"/>
                <path class="cls-17" d="M754.3,500.92c1.19.16,3.75,3.32,2.71,4.51-1.21-1.15-2.98-2.66-2.71-4.51Z"/>
                <path class="cls-3" d="M856.29,620.07c2.36,1.51.54,3.13,0,5.42-.68-.12-.75-4.5,0-5.42Z"/>
                <path class="cls-44" d="M710.07,501.82c1.46,2-.52,3.26-1.81,4.51-1.34-.49,1.42-4.64,1.81-4.51Z"/>
                <path class="cls-34" d="M808.45,572.23c.48,2.11,2.38,3.9,0,5.42-.75-.9-.68-5.3,0-5.42Z"/>
                <path class="cls-34" d="M647.33,378.16c1.13.96,4.32,2.36,3.16,4.51-1.95-.74-2.61-3.81-3.16-4.51Z"/>
                <path class="cls-27" d="M697.88,527.1c-.64.5-1.45,3.06-3.16,2.71-1.65-1.59,1.13-2.36,1.35-2.71h1.81Z"/>
                <path class="cls-24" d="M688.4,753.66c1.86.45-2.19,4.08-2.71,4.51-1.86-.45,2.19-4.08,2.71-4.51Z"/>
                <path class="cls-24" d="M697.88,643.54c.98-.92,2.35-4.47,4.51-3.16-.99,2.04-3.34,2.39-4.51,3.16Z"/>
                <path class="cls-43" d="M709.16,437.73c.7,0,.7,7.22,0,7.22-.77-.87-.65-7.22,0-7.22Z"/>
                <path class="cls-24" d="M772.8,749.15c.98-.89,2.34-4.48,4.51-3.16-.99,2.04-3.33,2.39-4.51,3.16Z"/>
                <path class="cls-26" d="M786.79,550.56c1.29.34-.35,5.16-1.81,4.51-.31-.9,1.09-4.7,1.81-4.51Z"/>
                <path class="cls-24" d="M712.32,766.3c-.84.59-2.82,3.49-4.51,3.16.07-2.67,3.09-2.47,4.51-3.16Z"/>
                <path class="cls-34" d="M831.92,601.11c1.63-1.03,1.95,2.88,0,3.61-.7-.69-.77-3.12,0-3.61Z"/>
                <path class="cls-42" d="M842.75,605.63c1.25-1.12,3.23,2.05,3.16,2.26-.53,1.44-3.85-1.04-3.16-2.26Z"/>
                <path class="cls-17" d="M657.71,724.78c.98,1.38-.86,3.6-1.81,4.51-1.29-.21,1.05-4.23,1.81-4.51Z"/>
                <path class="cls-26" d="M794.01,557.79c1.36.6-.05,4.8-.9,4.51-1.35-.46.31-3.63.9-4.51Z"/>
                <path class="cls-41" d="M717.74,453.98c-.34.9-1.33,3.83-2.71,3.16.12-1.42,1.25-2.9,1.81-4.06l.9.9Z"/>
                <path class="cls-19" d="M717.74,453.98l-.9-.9c.28-.58-.61-3.72,1.81-3.16-.03,1.24-.48,2.93-.9,4.06Z"/>
                <path class="cls-27" d="M697.43,423.29c1.35.46-.31,3.63-.9,4.51-1.36-.6.05-4.8.9-4.51Z"/>
                <path class="cls-22" d="M855.39,614.65c1.82-.48,3.19,3.05,1.81,3.61-.27.11-2.42-2.79-1.81-3.61Z"/>
                <path class="cls-42" d="M448.75,635.41c.74.77,3.64,1.97,3.16,3.61-2.55.14-2.61-2.8-3.16-3.61Z"/>
                <path class="cls-45" d="M872.54,630c2.34-.3,1.35,5.41.9,5.42-.69-1.68-.48-3.64-.9-5.42Z"/>
                <path class="cls-24" d="M737.6,673.32c1.03-1.2,1.84-2.64,3.16-3.61,1.63,2.68-2.83,3.32-3.16,3.61Z"/>
                <path class="cls-26" d="M771.9,524.39h-.9c-.62-.72-2.29-.54-2.71-1.81l.9-.9c2.31,1.43,1.5.62,2.71,2.71Z"/>
                <path class="cls-5" d="M766.03,515.36c.18.04,2,3.19.9,3.61-1.91.73-2.46-3.96-.9-3.61Z"/>
                <path class="cls-41" d="M835.53,603.82c2.25,1.56,1,2.53,0,4.51-.76-.36-.71-3.7,0-4.51Z"/>
                <path class="cls-34" d="M731.28,470.23c-.26,2.02-.86,2.34-2.26,3.61-1.47-1.2,1.18-3.16,1.35-3.61h.9Z"/>
                <path class="cls-21" d="M725.41,461.2c2.07,1.15.51,3.11-.9,4.51l.9-4.51Z"/>
                <path class="cls-26" d="M915.87,645.34c.7.67.77,3.16,0,3.61-.48.28-2.46-2.55,0-3.61Z"/>
                <path class="cls-41" d="M821.99,588.48c1.44.52-.34,3.86-.9,3.61-1.43-.64.33-3.82.9-3.61Z"/>
                <path class="cls-43" d="M678.92,748.24c-.37.54-.49,2.94-2.26,3.61-1.46-1.87,1.5-2.83,2.26-3.61Z"/>
                <path class="cls-19" d="M684.34,630.9c-1.03,1.11-1.46,3.1-3.61,2.71v-.9c.81-.78,2.32-1.96,3.61-1.81Z"/>
                <path class="cls-22" d="M456.87,633.61c-.55-.69-3.8-1.73-2.26-3.61,1.71.57,1.99,3.27,2.26,3.61Z"/>
                <path class="cls-19" d="M456.87,633.61c.55.69,3.8,1.73,2.26,3.61-1.71-.57-1.99-3.27-2.26-3.61Z"/>
                <path class="cls-27" d="M783.18,546.05c1.44.52-.34,3.86-.9,3.61-1.43-.64.33-3.82.9-3.61Z"/>
                <path class="cls-24" d="M777.76,532.51c.6-.12,2.31,2.78.9,3.61-.57.34-2.33-3.31-.9-3.61Z"/>
                <path class="cls-29" d="M738.95,479.26c1.55-.69,1.91,2.26.9,2.71-1.55.69-1.91-2.26-.9-2.71Z"/>
                <path class="cls-27" d="M612.58,467.52c1.65.56-1.6,3.68-1.81,3.61-1.65-.56,1.6-3.68,1.81-3.61Z"/>
                <path class="cls-24" d="M686.15,751.86c-.37.54-.49,2.94-2.26,3.61-1.46-1.87,1.51-2.83,2.26-3.61Z"/>
                <path class="cls-16" d="M479.89,564.1c3.24-.5,4.11,2.83.9,1.81-.27-.09-1.79-1.35-.9-1.81Z"/>
                <path class="cls-42" d="M608.07,473.84c1.65.56-1.6,3.68-1.81,3.61-1.65-.56,1.6-3.68,1.81-3.61Z"/>
                <path class="cls-26" d="M905.04,643.54c2.2-.49,1.45,4.51.9,4.51-.57-1.37-.7-3.05-.9-4.51Z"/>
                <path class="cls-41" d="M828.31,596.6c1.44.52-.34,3.86-.9,3.61-1.43-.64.33-3.82.9-3.61Z"/>
                <path class="cls-38" d="M766.03,524.39c1.93-1.39,1.1,3.19,0,2.71-.69-.3-.76-2.16,0-2.71Z"/>
                <path class="cls-19" d="M881.57,629.09c.35-.17,2.27,2.44.9,2.71-1.83.36-1.78-2.29-.9-2.71Z"/>
                <path class="cls-22" d="M772.8,527.1c-1.34-1.48-1.61-2.48-1.81-2.71h.9c.94,1.63.76,2.46.9,2.71Z"/>
                <path class="cls-42" d="M761.52,510.85c1.83-.36,1.78,2.29.9,2.71-.35.17-2.27-2.44-.9-2.71Z"/>
                <path class="cls-27" d="M655,730.19c1.18.07-.6,3.19-.9,3.61-1.29-.49.06-3.66.9-3.61Z"/>
                <path class="cls-24" d="M657.26,732c-.34.6.55,2.73-1.35,3.61-1.49-1.14,1.26-3.33,1.35-3.61Z"/>
                <path class="cls-24" d="M698.78,510.85c.67-1.08.93-3.73,2.71-2.26-.44,2-2.59,2.13-2.71,2.26Z"/>
                <path class="cls-41" d="M631.53,438.64c.92.29.77,3.36-.9,2.71-1.37-.53.59-2.81.9-2.71Z"/>
                <path class="cls-16" d="M446.49,638.12c1.53-.27,2.25.18,3.16,1.35-.35,1-3.83-.36-3.16-1.35Z"/>
                <path class="cls-24" d="M647.33,378.16c-.11-.14-3.92-.2-2.26-2.71.97.46,1.79,2.31,2.26,2.71Z"/>
                <path class="cls-43" d="M797.62,561.4c.83,1.7,1.9,2.38,0,3.61-.74-.84-.74-2.74,0-3.61Z"/>
                <path class="cls-19" d="M723.15,548.76c.09.15,2.4,1.45,2.71,2.26-2.52,1.65-2.57-2.15-2.71-2.26Z"/>
                <path class="cls-27" d="M801.23,566.81c1.93-1.39,1.1,3.19,0,2.71-.69-.3-.76-2.16,0-2.71Z"/>
                <path class="cls-43" d="M694.72,418.78c.7,0,.7,4.52,0,4.51-.78-.73-.63-4.51,0-4.51Z"/>
                <path class="cls-38" d="M763.32,519.87c1.93-1.39,1.1,3.19,0,2.71-.69-.3-.76-2.16,0-2.71Z"/>
                <path class="cls-42" d="M848.17,609.24c.35-.17,2.27,2.44.9,2.71-1.83.36-1.78-2.29-.9-2.71Z"/>
                <path class="cls-34" d="M779.57,541.54c1.28.86-.13,3.65-.9,3.61-1.17-.05.52-3.01.9-3.61Z"/>
                <path class="cls-42" d="M441.98,632.71c.59-.08,2.16,2.55.9,2.71-.59.08-2.16-2.55-.9-2.71Z"/>
                <path class="cls-45" d="M508.77,597.5c1.66-.33,1.85,1.5.9,2.71-.24-.74-1.5-2.07-.9-2.71Z"/>
                <path class="cls-41" d="M427.54,592.99c1.85-.03,3.15,2.17.9,1.81-.17-.03-1.81-1.34-.9-1.81Z"/>
                <path class="cls-3" d="M430.24,588.48c1.85-.03,3.15,2.17.9,1.81-.17-.03-1.81-1.34-.9-1.81Z"/>
                <path class="cls-24" d="M614.84,459.4c.11-.12-.05-2.19,1.35-2.71,1.67,1.53-1.29,2.57-1.35,2.71Z"/>
                <path class="cls-34" d="M700.59,431.41c-.38.73-.65,1.32-1.35,1.81-.75-.45-.47-1.88-.45-2.71l1.81.9Z"/>
                <path class="cls-38" d="M755.2,507.24c1.26.17-.32,2.79-.9,2.71-1.26-.17.32-2.79.9-2.71Z"/>
                <path class="cls-22" d="M751.59,496.41c.24.74,1.5,2.07.9,2.71-1.66.33-1.85-1.5-.9-2.71Z"/>
                <path class="cls-27" d="M886.08,630.9c.59-.08,2.16,2.55.9,2.71-.59.08-2.16-2.55-.9-2.71Z"/>
                <path class="cls-8" d="M692.92,757.27c1.26.17-.32,2.79-.9,2.71-1.26-.17.32-2.79.9-2.71Z"/>
                <path class="cls-43" d="M439.27,620.97c.59-.08,2.16,2.55.9,2.71-.59.08-2.16-2.55-.9-2.71Z"/>
                <path class="cls-12" d="M773.25,532.51c1.26.17-.32,2.79-.9,2.71-1.26-.17.32-2.79.9-2.71Z"/>
                <path class="cls-24" d="M852.68,611.94c1.12,1.66.35,3.73-.9,1.81-.64-.98.35-1.09.9-1.81Z"/>
                <path class="cls-16" d="M775.96,537.02c1.12-.77,1.19,3.46,0,2.71-.69-.43-.78-2.17,0-2.71Z"/>
                <path class="cls-43" d="M678.47,540.64c1.85-.03,3.15,2.17.9,1.81-.17-.03-1.81-1.34-.9-1.81Z"/>
                <path class="cls-24" d="M758.81,506.33c1.12-.77,1.19,3.46,0,2.71-.69-.43-.78-2.17,0-2.71Z"/>
                <path class="cls-24" d="M731.28,470.23h-.9c.36-.92-.57-2.72.45-3.61.64,0,.54,2.93.45,3.61Z"/>
                <path class="cls-32" d="M860.81,618.26c1.37-.5,1.99,1.33.9,1.81-1.32.58-1.99-1.41-.9-1.81Z"/>
                <path class="cls-19" d="M896.01,635.41c.59-.08,2.16,2.55.9,2.71-.59.08-2.16-2.55-.9-2.71Z"/>
                <path class="cls-34" d="M491.62,561.4c1.85-.03,3.15,2.17.9,1.81-.17-.03-1.81-1.34-.9-1.81Z"/>
                <path class="cls-42" d="M782.73,748.24c-.23.13-1.15,3.03-2.71,1.35.51-1.41,2.6-1.24,2.71-1.35Z"/>
                <path class="cls-19" d="M761.07,750.95c.14-.06,1.16-3.01,2.71-1.35-.54,1.42-2.54,1.22-2.71,1.35Z"/>
                <path class="cls-19" d="M765.58,750.95c.29-.18,1.13-3.02,2.71-1.35-.58,1.46-2.44,1.17-2.71,1.35Z"/>
                <path class="cls-10" d="M470.41,620.97l-.9.9c-.04-.13-2.06-1.15-.45-2.71.75.34,1.06,1.44,1.35,1.81Z"/>
                <path class="cls-45" d="M677.57,472.94c1.26.17-.32,2.79-.9,2.71-1.26-.17.32-2.79.9-2.71Z"/>
                <path class="cls-16" d="M439.27,628.19c.59-.08,2.16,2.55.9,2.71-.59.08-2.16-2.55-.9-2.71Z"/>
                <path class="cls-19" d="M748.43,751.86c-.58.07-1.24-.1-1.81,0,.32-.53.76-1.19.9-1.81.3.4,2.55-1.06.9,1.81Z"/>
                <path class="cls-27" d="M905.04,639.02c.59-.08,2.16,2.55.9,2.71-.59.08-2.16-2.55-.9-2.71Z"/>
                <path class="cls-42" d="M765.58,750.95c-1.15.8-.97.88-2.71,1.81,1.13-.81,1.51-1.07,2.71-1.81Z"/>
                <path class="cls-18" d="M617.54,554.17l-.9.9c-.05-.08-1.98-.38-.45-1.81.25.64,1.08.73,1.35.9Z"/>
                <path class="cls-17" d="M790.4,553.27c.44-.02.61.79.45,1.35-.51,3.36-1.6-1.29-.45-1.35Z"/>
                <polygon class="cls-19" points="635.15 549.66 636.05 550.56 636.05 551.47 635.15 551.47 635.15 549.66"/>
                <polygon class="cls-12" points="769.64 528.9 770.99 529.35 769.64 530.71 769.19 530.25 769.64 528.9"/>
                <path class="cls-24" d="M769.19,521.68l-.9.9c-.21-.62-.17-2.19.45-2.71.81.35.31,1.72.45,1.81Z"/>
                <polygon class="cls-9" points="864.42 620.97 865.77 621.42 865.32 622.78 864.87 622.33 864.42 620.97"/>
                <polygon class="cls-19" points="890.6 633.61 891.95 634.06 891.5 635.41 891.05 634.96 890.6 633.61"/>
                <path class="cls-24" d="M832.37,733.8c.1-.04-.11-1.75,0-1.81.39-.2,1.61-.12,1.81.45-.27.75-1.75,1.25-1.81,1.35Z"/>
                <polygon class="cls-22" points="455.52 635.41 456.42 636.32 456.42 637.22 455.52 637.22 455.52 635.41"/>
                <polygon class="cls-12" points="760.61 516.26 761.97 516.72 760.61 518.07 760.16 517.62 760.61 516.26"/>
                <path class="cls-24" d="M640.11,474.74c.09-.07.85-2.41,1.81-1.35.43,1.88-1.74,1.25-1.81,1.35Z"/>
                <path class="cls-27" d="M901.43,637.22c.44-.02.61.79.45,1.35-.51,3.36-1.6-1.29-.45-1.35Z"/>
                <path class="cls-11" d="M810.71,571.33v.9c-.67-.69-1.13-.91-1.81-1.81h.9c.31.31.55.49.9.9Z"/>
                <path class="cls-42" d="M711.87,442.25c.44-.02.61.79.45,1.35-.51,3.36-1.6-1.29-.45-1.35Z"/>
                <polygon class="cls-19" points="876.15 627.29 877.51 627.74 877.06 629.09 876.6 628.64 876.15 627.29"/>
                <polygon class="cls-42" points="590.92 549.66 592.27 550.11 591.82 551.47 591.37 551.02 590.92 549.66"/>
                <polygon class="cls-41" points="627.92 552.37 628.38 553.72 627.02 554.17 626.57 553.72 627.92 552.37"/>
                <path class="cls-26" d="M671.7,488.28c.11-.09.87-2.43,1.81-1.35.43,1.87-1.74,1.25-1.81,1.35Z"/>
                <g>
                  <path class="cls-24" d="M813.42,806.92c21.09-25.4,43.02-50.57,56.42-81.24l-7.67,17.6,7.22-7.22c-15.45,25.73-30.87,53.23-55.96,70.86Z"/>
                  <path class="cls-45" d="M860.81,746.44c1.26.17-.32,2.79-.9,2.71-1.26-.17.32-2.79.9-2.71Z"/>
                </g>
                <path class="cls-41" d="M832.37,733.8c-4.6,1.77-.1-1.59,0-1.81-.11.06.1,1.77,0,1.81Z"/>
                <path class="cls-40" d="M747.53,750.05c-.14.62-.58,1.28-.9,1.81-.85.14-1.9-.19-2.71,0,.89-.49,2.03-2.26,3.61-1.81Z"/>
              </g>
            </g>
          </g>
          <g>
            <path class="cls-42" d="M429.79,586.67c-.57.63-1.92,2.57-2.71,3.61-23.74,31.03-41.16,79.06-63.19,112.38-3.52,3.45-4.31-4.76-8.58-5.87l-9.48,1.35,208.51-369.18c2.11-2.88,15.4,4.85,15.35,8.12l-139.91,249.58Z"/>
            <path class="cls-40" d="M540.37,321.29l13.99,5.87-209.41,370.99c-16.86,20.7-21.02,10.81-11.73-9.93,13.6-30.36,38.49-40.69,50.55-76.73,2.64-7.89,2.22-16.57,5.42-24.37,5.22-12.74,20.62-32.65,27.98-46.04,40.5-73.6,80.51-147.45,123.21-219.8Z"/>
            <path class="cls-40" d="M623.86,246.37c-.59-.49-.79-2.43-2.71-1.81-.25-4.09-2.28-7.58-6.32-4.51-4.52-4.16-14.76-5.54-7.22,1.81-6.25,1.83-3.55,4.1-2.71,7.22l-3.61-.45,2.71,2.26c-.36.34-5.01-.61-.9,1.81,1.26,1.09,3.38,1.25,4.51,1.81,1.08.97,2.52,2.69,3.61,3.61-1.76-.46-3.76-1.11-5.42-1.81l-7.22-3.16c2.23,1.46,4.81,2.14,7.22,3.16.7,1.01,2.72,2.94,3.61,3.61-.71-.33-2.81-.58-3.61-.9-1.02-.97-2.47-3.44-4.51-2.26,1.08,1.69,3.04,1.67,4.51,2.26.35.33,1.56,2.53,1.81,2.71-1.05-.53-2.87-1.14-4.06-1.81-.57.55.95,2.24,1.35,2.71-.99-.52-2.9-1.14-4.06-1.81-.72.96.97,1.49,1.35,2.71.78,2.47.27,2.36,3.61,5.42-2.1-1.05-4.33-2.5-6.77-2.71,1.24,1.17,2.75,2.55,4.06,3.61-7.27-3.05-13.89-7.06-21.21-9.93l2.26-2.26-7.22-4.51c.3-1.83,10.11-1.19,4.06-4.06,1-.13,4.91.38,4.96-.45s-5.78.2-5.87-2.26l7.67.45-4.06-3.16,5.87.45-6.32-2.71c4.81-.25,9.62,1.95,2.26-2.26l11.28,2.26c-2.62-2.96-9.87-2.4-3.16-4.96l-4.96-1.35,10.83.9-9.03-3.61,12.19,2.26c.02-1.89-7.95-3.5-7.67-4.06.21-.43,8.53-.73,9.48-.45,2.55.75,21.37,11.87,22.57,13.54.79,1.11-2.95,2.72-3.16,2.71Z"/>
            <path class="cls-40" d="M471.77,710.33c14.64.12,22.82,21.84,20.76,34.3l-30.24-31.14c.17-1.41,8.49-3.17,9.48-3.16Z"/>
            <path class="cls-40" d="M599.49,273.45c-.35,6.42-2.82,1.74-3.16,1.81-.6.12-1.21,5.63-4.96,5.42-8.92-4.91-27.89-7.12-28.88-17.6,2.75-10.29,31.63,7.13,37.01,10.38Z"/>
            <path class="cls-31" d="M561.58,322.19c12.94-4.33-1.41-6.81-4.51-12.64,4.28,1.58,36.46,21.78,37.01,23.92.5,1.94-1.91,8.42-4.06,8.58-1.73.13-23.4-17.07-28.43-19.86Z"/>
            <path class="cls-26" d="M591.37,280.67c3.76.22,4.36-5.29,4.96-5.42.34-.07,2.81,4.62,3.16-1.81,4.67,2.83,29.3,16.33,20.31,22.57-5.64,3.92-22.59-12.13-28.43-15.35Z"/>
            <path class="cls-40" d="M330.05,662.49c1.02-.36,10.87-.09,11.28.45-2.64,3.35-8.62,17.93-10.83,19.86-4,3.48-18.71,5.03-22.11,14.89,2.73-4.24,19.71-34.52,21.66-35.2Z"/>
            <path class="cls-40" d="M525.93,710.33c8.14-1.32,22.84,15.83,18.96,24.37-2.8-3.08-27.52-15.09-27.53-16.7,0-.58,8.01-7.58,8.58-7.67Z"/>
            <path class="cls-40" d="M575.12,304.14l3.61,7.67-4.51,2.26c-5.37-2.97-30.1-12.77-29.79-16.7.89-11.15,25.97,4.13,30.69,6.77Z"/>
            <path class="cls-26" d="M577.83,301.43l6.32-3.16-6.32-5.87c2.91,1.43,41.24,21.61,27.53,26.18-1.71.57-23.13-14.61-27.53-17.15Z"/>
            <path class="cls-31" d="M574.22,314.07l4.51-2.26-3.61-7.67c4.36,2.44,25.45,15.84,26.18,19.41,2.98,14.61-21.82-6.57-27.08-9.48Z"/>
            <path class="cls-40" d="M557.07,309.56c3.11,5.83,17.45,8.31,4.51,12.64-3.03-1.68-23.03-9.12-23.47-10.38,1.88-10.21,12.24-4.73,18.96-2.26Z"/>
            <path class="cls-40" d="M589.56,286.09l-6.32,3.61c-4.04-2.22-25.41-9.11-26.18-12.19-3.4-13.6,29.9,7.09,32.5,8.58Z"/>
            <path class="cls-40" d="M577.83,292.41l6.32,5.87-6.32,3.16c-4.69-2.71-24.52-10.65-25.73-11.73-1.11-1-1.66-1.5-1.35-3.16.93-8.55,23.7,4.21,27.08,5.87Z"/>
            <path class="cls-45" d="M583.24,289.7l6.32-3.61c4.21,2.41,30.55,15.22,23.02,21.66-1.87.83-1.88.5-3.61,0-1.64-.47-20.94-15.41-25.73-18.05Z"/>
            <path class="cls-40" d="M477.18,662.49c1.58-.5,30.28,8.91,31.59,9.93,1.51,1.17,1.23,5.06,1.35,6.77l-34.3-10.83c3.17-4.68,31.71,9.56,32.5,7.22-9.67-6.74-21.64-8.32-32.5-10.83,1.04-.44.74-2.06,1.35-2.26Z"/>
            <path class="cls-40" d="M522.31,455.79c.59,7.02-4.64,26.49-9.93,30.69-1.15.92-10.16,4.16-7.67.45,6.67-5.6,8.15-12.49,11.28-20.31l-4.96,16.7c-.07,2.68,2.56-.64,2.71-.9,4.16-7.4,3.91-19.26,8.58-26.63Z"/>
            <path class="cls-42" d="M298.46,759.08c.72-.03,2.51-.15,2.71,0,2.32,1.71-11.77,26.66-13.54,30.69,1.12-4.95,5.91-30.48,10.83-30.69Z"/>
            <path class="cls-40" d="M499.75,501.82c11.6,7.25,23.35,21.95,21.66,36.11-3.72-14.83-11.34-25.3-21.66-36.11Z"/>
            <path class="cls-40" d="M488.01,516.26c9.08,6.75,15.39,19.56,15.35,30.69l-15.35-30.69Z"/>
            <path class="cls-40" d="M490.72,510.85c8.99,8.91,17.11,21.37,17.15,34.3l-17.15-34.3Z"/>
            <path class="cls-44" d="M496.14,503.63c9.1,8.16,16.62,17.54,20.31,29.34l.45,7.67c-3.09-14.71-12.13-25.32-20.76-37.01Z"/>
            <path class="cls-44" d="M493.43,507.24c9.8,9.1,18.55,21.34,18.96,35.2-3.41-13.85-11.28-23.72-18.96-35.2Z"/>
            <path class="cls-40" d="M485.31,521.68c7.3,4.95,16.08,18.41,12.64,27.08-1.24-10.98-7.33-17.96-12.64-27.08Z"/>
            <polygon class="cls-45" points="476.28 670.62 511.03 682.8 477.18 673.32 476.28 670.62"/>
            <path class="cls-44" d="M477.18,651.66c10.58,1.73,22.86,3.59,32.04,9.48l-15.35-4.51-16.7-4.96Z"/>
            <path class="cls-45" d="M478.08,648.05c4.49-1.51,26.25,5.36,31.14,8.58l-32.04-6.77c-.88-.45.62-1.71.9-1.81Z"/>
            <path class="cls-40" d="M482.6,525.29c5.15,6.74,14.03,15.94,10.83,25.27-.75-9.92-7.72-16.36-10.83-25.27Z"/>
            <path class="cls-40" d="M396.85,561.4l-8.12,16.25c-1.98-6.83,2.4-13.05,8.12-16.25Z"/>
            <path class="cls-40" d="M479.89,530.71c5.52-1,14.05,25.6,9.03,21.66-.29-8.36-5.23-14.68-9.03-21.66Z"/>
            <path class="cls-40" d="M477.18,535.22c2.11-.99,11.29,14.93,8.12,18.05l-8.12-18.05Z"/>
            <path class="cls-4" d="M604.91,262.62c1.77,2.05,2.23,1.43,2.71,1.81,1.43.76,1.63,2.18,5.42,3.61.94.95,1.94,2.47,2.71,3.61l4.96,8.12c-1.78-3.12-4.17-4.93-6.77-7.22.27-3.04-3.93-3.52-5.42-4.51-.86-.7-1.46-3.27-3.61-2.71-.56-.44-.79-2.45-2.71-1.81-.38-1.21-2.07-1.75-1.35-2.71,1.16.66,3.07,1.29,4.06,1.81Z"/>
            <polygon class="cls-44" points="527.73 678.74 536.76 680.55 518.25 682.8 527.73 678.74"/>
            <polygon class="cls-45" points="527.73 675.13 534.95 676.94 517.35 678.29 527.73 675.13"/>
            <path class="cls-45" d="M475.38,539.73c2.08,4.03,8.11,10.5,5.42,15.35l-5.42-15.35Z"/>
            <polygon class="cls-26" points="525.02 666.1 532.24 667.91 516.45 669.26 525.02 666.1"/>
            <polygon class="cls-26" points="527.73 668.81 532.24 670.62 517.35 672.87 527.73 668.81"/>
            <path class="cls-40" d="M497.04,647.15c3.14,1.96,12.79,2.11,12.19,6.77l-12.19-6.77Z"/>
            <path class="cls-44" d="M472.67,545.15l4.51,11.73c-1.94-2.05-6.37-9.32-4.51-11.73Z"/>
            <polygon class="cls-26" points="520.51 659.78 532.69 660.24 517.8 662.49 520.51 659.78"/>
            <path class="cls-40" d="M469.06,550.56c.58-.2,6.01,9.28,2.71,9.03l-2.71-9.03Z"/>
            <path class="cls-25" d="M618.45,266.23c-.52-.33-4.12-1.52-4.51-1.81-1.25-.93-3.53-3.77-4.51-4.51,4.9,2.31,5.21,2.98,9.03,6.32Z"/>
            <path class="cls-25" d="M611.23,258.11l9.03,5.87c-3.44-.14-6.68-3.88-9.03-5.87Z"/>
            <path class="cls-34" d="M526.38,672.42c-.09.77.21.85.9.9l-9.93,2.26,9.03-3.16Z"/>
            <path class="cls-25" d="M613.93,264.42c1.15.78,3.73,4.02,5.42,4.96-1.65.81-2.38-.82-4.51-1.35-1.22-1.48-3.03-3.41-4.51-4.51.25.19,3.3.69,3.61.9Z"/>
            <path class="cls-27" d="M422.12,631.8c8.37.78-4.08,2.29,4.06,3.16-3.94,1.03-7.11,1.24-4.06-3.16Z"/>
            <path class="cls-40" d="M466.35,555.98c1.18-.78,3.74,4,.9,5.42l-2.26-.45,1.35-4.96Z"/>
            <path class="cls-27" d="M609.87,271.65c2.59,1.12,6.06,4.27,6.32,7.22-2.25-2.13-5.03-4.32-6.32-7.22Z"/>
            <path class="cls-45" d="M528.63,662.49c.2.01,3.71,1.06,3.61,1.81l-11.28-.45c1.59.17,7.14-1.39,7.67-1.35Z"/>
            <path class="cls-44" d="M621.15,244.57c.37,1.55,1.29,1.74,2.71,1.81.99.81,2.22,2.4,3.61,3.16-.13.81-3.1-.29-3.61-.45-.56-.44-.79-2.45-2.71-1.81-.15-1.16-1.75-1.84-1.81-2.26-.09-.71,1.81-.36,1.81-.45Z"/>
            <path class="cls-40" d="M520.51,710.33c.6-.21,2.78-.17,3.16.45l-4.96,3.16c-.43-.94,1.12-3.37,1.81-3.61Z"/>
            <path class="cls-30" d="M613.93,272.55c-1.65-1.45-3.7-3.13-5.42-4.51,1.48,1,5.69,1.47,5.42,4.51Z"/>
            <path class="cls-44" d="M527.28,673.32c-.69-.05-1-.14-.9-.9l8.12.45c-1.5,1.43-5.22.61-7.22.45Z"/>
            <path class="cls-30" d="M614.84,268.04c1.42,1.73,4.06,4.04.9,3.61-.77-1.14-1.77-2.66-2.71-3.61.41.15,1.29-.13,1.81,0Z"/>
            <path class="cls-23" d="M618.45,266.23c1.22.78,3.5,1.11,4.51,3.16-2.18,1.34-3.54-2.31-4.51-3.16Z"/>
            <path class="cls-42" d="M500.65,493.7c1.55-.35,1.01,4.34-.9,3.61-1.09-.42.72-3.57.9-3.61Z"/>
            <path class="cls-2" d="M608.52,268.04c-1.69-1.14-2.12-1.54-3.61-2.71,2.15-.56,2.75,2.01,3.61,2.71Z"/>
            <path class="cls-26" d="M517.8,664.3c3.39-.48-.29,3.75-1.35,1.35-.04-.09,1.26-1.34,1.35-1.35Z"/>
            <path class="cls-41" d="M628.83,248.18c1.85-.03,3.15,2.17.9,1.81-.17-.03-1.81-1.34-.9-1.81Z"/>
            <path class="cls-25" d="M624.77,250.88c.09.12,2.2-.06,2.71,1.35-1.59,1.64-2.56-1.31-2.71-1.35Z"/>
            <path class="cls-25" d="M604.91,265.33l-2.71-1.81c1.91-.64,2.15,1.37,2.71,1.81Z"/>
            <path class="cls-27" d="M605.81,268.94c.11.1,2.2-.05,2.71,1.35-1.52,1.68-2.56-1.28-2.71-1.35Z"/>
            <path class="cls-1" d="M603.1,269.84c.16.13,2.17-.07,2.71,1.35-1.55,1.66-2.57-1.3-2.71-1.35Z"/>
            <polygon class="cls-34" points="608.07 272.55 608.97 273.45 608.97 274.35 608.07 274.35 608.07 272.55"/>
            <g>
              <path class="cls-40" d="M381.95,568.62c-1.76-4.2-6.63-8.35-10.38-10.83.31,2.11,9.63,10.77,10.38,10.83,10.74,25.66-21.7,98.29-55.51,88.46-8.8-2.56-.31-37.95,1.81-45.13,17.75,7.14,12.45,32.57-1.35,40.17,4.21.82,6.47-1.95,10.38,1.35l-3.16-3.16c1.9-4.3,5.01,2.99,7.67,3.16-10.05-11.17-.7-17.59,9.48-6.77-.12-3.42-9.45-7.01-9.93-8.12-1.04-2.43,1.83-11.46,0-17.15s-11.88-11.09-12.64-13.54c-.3-.96,3.11-16,3.61-18.5l2.71.45-2.71-1.35c.27-1.26-.11-5.59,0-5.87.38-.98,2.87-.13,3.16-.45.91-1.01-6.91-3.16,3.16-2.26-6.37-.16-3.82-14.31-1.81-17.15,1.28-1.81,8.53.41.9-2.71,5.07-3.95.34-.58,0-3.61-.13-1.21,3.67-10.23,4.51-12.19,4.12,1.2,2.42.54,1.81-2.71.99-1.74,3.63-8.42,4.96-9.03,1.09-.5,6.43,3.84,1.35-2.26l30.69-55.96c11.85-1.61,2.6-.42,1.81-3.61-.64-2.56,4.38-5.09,4.51-5.42.08-.21-1.02-2.2,0-4.51,4.06-9.17,5.52-14.66,16.25-12.64l-8.12-3.61c8.38-17.25,20.68-23.53,38.36-28.43,5.79-1.61,35.01-7.2,39.27-6.32.15.03,1.1,2.99,2.71,1.35-.49-1.44-2.67-1.21-2.71-1.35-.59-2.17,11.43-5.22,11.73-3.16-5.94,10.32-12.06,22.66-17.6,30.24l-5.87-4.06c6.33,5.47,5.24,6.47,1.35,13.09l-9.48-7.67c6.32,4.16,13.62,18.19,1.81,7.22l3.61,8.12-9.93-9.03c2.05,4.11,9.39,8.49,7.22,13.54-1.17.77-7.98-9.86-9.48-11.28-.53-.51-5.77-5.5-6.77-3.16,10.24,4.91,24.59,33.92,4.51,9.93,1.65,4.93,9.39,9.19,5.87,14.89-4.97-7.18-8.98-15.6-16.7-20.31,5.04,7.57,14.26,14.12,14.89,23.92-1.33.66-14.55-22.31-20.31-21.21,7.14,7.17,16.34,15.03,17.6,25.73-4.51-5.58-9.67-16.65-15.8-20.31-.67-.4-2.99-2.17-2.71,0,3.89.91,19.59,21.76,15.8,23.92-5.25-7.57-10.62-17.1-19.41-21.21,6.93,7.16,14.74,13.95,17.6,23.92-6.46-6.73-12.09-17.33-21.21-20.31,7.96,6.83,15.46,14.21,18.96,24.37-6.96-6.73-11.66-16.94-21.66-19.86,4.55,4.57,10.52,8.36,14.44,13.54,1.48,1.95,7.02,9.43,4.96,11.28l-17.6-17.6c5.78,6.6,13.96,11.94,16.25,20.76l-1.81.9c-5.75-7.51-12.44-16.65-21.66-19.86,5.15,5.47,12.86,10.05,17.15,16.25.93,1.35,4.45,6.05,2.26,7.67-6.71-8.76-15.21-19.42-26.63-22.11,4.7.77,30.5,24.03,24.82,27.53-4.79-6.87-10.31-15.72-18.5-18.5,4.48,6.33,18.39,13.67,15.8,22.11-3.86-6.02-8.58-13.76-15.8-15.8,1.57.51,20.43,20.69,13.09,20.31-1.42-.07-13.32-20.62-20.31-19.41,4.53,4.67,12.67,10.11,16.25,15.35.41.59,4.46,7.08,2.26,7.67-5.7-8.29-14.11-18.25-23.92-21.21l22.57,22.57-18.96-15.35c5.2,6.18,18.39,13.15,16.7,22.11-5.12-6.36-11.16-15.32-19.41-17.6,6.91,5.55,13.67,11.13,18.05,18.96l-1.81.9-14.44-13.54c1.23,1.44,19.72,18.05,13.09,18.5l-12.19-12.19c1.65,1.38,16.06,16.37,10.38,16.7-4.76-6.38-10.85-15.2-18.5-17.6,1.94-.65,24.03,24.74,15.35,21.66-4.36-7.27-10.16-13.2-16.7-18.5l-12.19-5.87c6.13,2.91,26.92,19.38,27.98,25.27.15.85.33,3.87-1.35,3.16l-13.54-16.25-7.67-4.06c6.63,6.47,21.54,15.1,19.41,24.82-3.29-5.76-8.13-13.95-14.89-15.8,4.12,5.02,14.5,11.62,12.19,19.41-4.35-7.5-10.3-14.6-18.05-18.96,2.39,4.62,8.03,7.01,11.28,11.28.83,1.09,7.57,11.5,2.26,8.58l-16.25-16.25,14.89,17.6c-1.98,3.31-13.47-15.45-18.5-14.89.55,2.08,19.89,17.31,13.54,18.05-1.2.14-7.03-9.85-9.93-9.93-.47,4.23,11.92,10.08,5.42,12.64l-13.09-12.19c1.46.9,15.9,15.9,11.28,15.8-3.97-4.66-8.75-11.81-14.89-13.09l14.44,14.44c.01,1.66-1.17,2.38-2.71,2.26Z"/>
              <g>
                <path class="cls-34" d="M342.24,544.25c.49-1.14,1.41-2.02,1.81-2.71.61,3.25,2.31,3.91-1.81,2.71Z"/>
                <path class="cls-27" d="M332.31,589.38c.06-.29-.06-.62,0-.9l2.71,1.35-2.71-.45Z"/>
                <path class="cls-22" d="M348.1,594.79c9.86,3.27,18.75,10.25,25.73,17.6l-25.73-17.6Z"/>
                <polygon class="cls-19" points="353.52 566.81 368.86 575.84 379.24 585.32 353.52 566.81"/>
                <polygon class="cls-24" points="360.74 585.77 371.57 592.99 378.34 600.66 360.74 585.77"/>
                <path class="cls-19" d="M357.13,564.1c7.94,3.47,14.98,8.99,21.21,14.89-7.51-3.97-14.77-9.4-21.21-14.89Z"/>
                <path class="cls-42" d="M355.32,592.99c7.68,3.93,14.45,9.53,20.31,15.8-7.08-4.52-14.29-9.94-20.31-15.8Z"/>
                <path class="cls-42" d="M361.64,581.25c6.68,3.59,12.51,8.42,17.6,13.99-5.95-3.51-13.26-8.59-17.6-13.99Z"/>
                <path class="cls-42" d="M347.2,620.07c5.79,3.46,12.26,7.12,15.8,13.09l-15.8-13.09Z"/>
                <polygon class="cls-42" points="360.74 575.84 369.77 581.25 380.15 591.63 360.74 575.84"/>
                <path class="cls-42" d="M355.32,602.92c6.21,3.64,12.85,7.7,16.7,13.99l-16.7-13.99Z"/>
                <path class="cls-42" d="M365.25,564.1c5.98,3.55,11.98,8.07,15.8,13.99-5.38-4.45-11.11-8.78-15.8-13.99Z"/>
                <path class="cls-42" d="M352.62,611.04c5.95,3.11,11.34,7.17,15.8,12.19-5.43-2.83-11.58-7.76-15.8-12.19Z"/>
                <path class="cls-24" d="M368.41,618.26c-5.39-3.2-10.64-7.13-15.35-11.28l10.38,5.87c1.9,1.6,3.36,3.56,4.96,5.42Z"/>
                <path class="cls-19" d="M348.1,612.85c5.98,3,11.76,6.77,16.7,11.28-5.79-2.51-12.22-6.84-16.7-11.28Z"/>
                <path class="cls-26" d="M363.9,593.89v.9c-4.91-3.49-10.13-6.47-15.35-9.48,5.31.69,11.92,4.65,15.35,8.58Z"/>
                <path class="cls-24" d="M363.9,594.79v-.9l11.73,10.38c-4.29-2.53-7.7-6.62-11.73-9.48Z"/>
                <path class="cls-24" d="M370.67,563.2c4.14,2.39,7.68,5.55,10.38,9.48-4.08-.66-8.22-6.3-10.38-9.48Z"/>
                <path class="cls-27" d="M439.27,416.97c3.51-.57,6.84.82,9.48,3.16-2.26.89-6.94-2.48-8.58-2.26-1.45.2,3,2.73,0,2.71-2.78-1.67-6.31-2.73-.9-3.61Z"/>
                <path class="cls-42" d="M347.2,629.09l11.28,9.48c-3.62-1.15-10.12-5.66-11.28-9.48Z"/>
                <path class="cls-24" d="M381.95,568.62c-.75-.06-10.07-8.72-10.38-10.83,3.75,2.48,8.62,6.63,10.38,10.83Z"/>
                <path class="cls-16" d="M457.78,415.17l-.45-1.81,11.28,4.96c-4.05.01-6.68-2.37-10.83-3.16Z"/>
                <path class="cls-42" d="M351.71,628.19c3.32,1.51,7.08,4.2,8.58,7.67-3.24-1.74-7.08-4.08-8.58-7.67Z"/>
                <path class="cls-22" d="M356.23,620.97c2.6,2.04,8.02,5.21,8.12,9.03-1.81-3.09-7.7-5.34-8.12-9.03Z"/>
                <path class="cls-34" d="M457.78,415.17l4.06,4.51-9.48-4.96c.21-.85,4.57.29,5.42.45Z"/>
                <path class="cls-19" d="M340.88,642.63c3.52,1.33,6.02,4.17,8.58,6.77-2.83-.08-7.19-4.5-8.58-6.77Z"/>
                <path class="cls-16" d="M450.1,415.17c.35.03,4.31,2.45,4.96,3.16-4.55-1.27-5.4.83-9.03-1.81,1.25.06,3.85-1.37,4.06-1.35Z"/>
                <path class="cls-22" d="M346.3,637.22c3.07,1.66,5.21,4.41,7.67,6.77-2.42.34-7.27-4.53-7.67-6.77Z"/>
                <path class="cls-27" d="M432.95,418.78c2.37.88,5,1.16,6.77,3.16-.07.51-8.03-.76-6.77-3.16Z"/>
                <path class="cls-27" d="M423.93,421.49c2.19.84,4.27,2.37,5.87,4.06-1.15.56-6.97-2.21-5.87-4.06Z"/>
                <path class="cls-42" d="M349.01,635.41c2.49.61,3.95,3.46,5.87,4.96-2.09.91-5.48-3.26-5.87-4.96Z"/>
                <path class="cls-16" d="M470.41,415.17c-1.45-.58-3.85-.62-5.42-2.26,2.57-1.62,4.05,1.18,5.42,2.26Z"/>
                <path class="cls-16" d="M428.44,420.58c1.89-.12,3.73.93,4.96,2.26-1.12.82-4.79-.97-4.96-2.26Z"/>
                <path class="cls-27" d="M351.71,618.26c.91-.32,3.21,2.07,3.16,2.26-.43,1.45-3.88-1.01-3.16-2.26Z"/>
                <path class="cls-16" d="M344.49,648.95c.16-.04,2.59,2.1,1.81,2.71-1.35.52-3.18-2.33-1.81-2.71Z"/>
                <path class="cls-24" d="M473.12,409.75c.04.15,2.22-.08,2.71,1.35-1.61,1.64-2.56-1.32-2.71-1.35Z"/>
                <path class="cls-16" d="M470.41,415.17c.17.14,2.17-.07,2.71,1.35-1.56,1.65-2.57-1.3-2.71-1.35Z"/>
                <path class="cls-24" d="M341.78,647.15c1.37-.5,1.99,1.33.9,1.81-1.32.58-1.99-1.41-.9-1.81Z"/>
                <path class="cls-16" d="M368.41,618.26c.09.11,3.02-.34,1.35,1.81-.74-.26-1.26-1.75-1.35-1.81Z"/>
                <path class="cls-45" d="M348.1,574.03h.9c1.78-.14,1.78,1.05,0,.9l-.9-.9Z"/>
              </g>
            </g>
            <g>
              <path class="cls-40" d="M326.44,687.77c5.27.57-5.83,15.85,0,22.57,7.68,8.85,28.83-22.91,32.95-7.67,5.51,20.37-11.07,32.26-25.27,42.42.34,2.69,1.21,1.02,2.26.45,3.27-1.78,17.26-15.24,18.96-15.35,1.88-.34.81,1.51.45,2.26-1.06,2.19-35.1,31.75-37.46,31.14-5.13-9.81-14.21-7.97-23.02-10.38l9.03-47.84c6.78-6.55,13.52-13.54,22.11-17.6Z"/>
              <g>
                <path class="cls-26" d="M329.6,735.61c8.14-11.53,18.33-21,27.53-31.59-6.56,12.05-18.06,21.7-27.53,31.59Z"/>
                <path class="cls-26" d="M346.3,706.72c-8.04,10.89-16.16,21.72-24.37,32.5l10.38-16.7,13.99-15.8Z"/>
                <path class="cls-26" d="M330.05,715.75l-8.58,16.7-10.38,17.6c4.66-12.14,12.44-23.13,18.96-34.3Z"/>
                <path class="cls-34" d="M323.73,709.43c-2.84,11.08-9.31,21.02-13.54,31.59l5.87-15.8,7.67-15.8Z"/>
                <polygon class="cls-45" points="321.02 750.05 322.38 750.5 318.32 754.56 321.02 750.05"/>
                <path class="cls-45" d="M329.6,735.61c-.48.68-.88,4.67-3.61,3.16.85-1.34,2.6-2.1,3.61-3.16Z"/>
              </g>
            </g>
            <path class="cls-42" d="M621.15,244.57c0,.09-1.89-.26-1.81.45.05.41,1.66,1.1,1.81,2.26.01.09-1.48-.33-1.81.45.87.58,1.25,1.45,1.81,2.26-4.07-2.05-4.13-2.14-7.22-5.42.16.16,3.32,1.26,4.06,1.81.67-.91-.89-1.56-1.35-2.71.53-.06,1.75.24,1.81-.45-.77-1.48-1.88-1.04-2.71-1.35-.17-.2-.79-1.7-.9-1.81,4.04-3.06,6.07.42,6.32,4.51Z"/>
            <path class="cls-20" d="M607.61,261.72c1.03.75,2.26,1.47,2.71,1.81,1.48,1.1,3.29,3.03,4.51,4.51-.52-.13-1.4.15-1.81,0-2.28-2.32-3.92-2.43-5.42-3.61-.37-.2-1.13-.99-2.71-1.81-.4-.47-1.92-2.16-1.35-2.71,1.19.66,3.02,1.27,4.06,1.81Z"/>
            <path class="cls-20" d="M609.42,259.91c.99.74,3.26,3.59,4.51,4.51-.31-.21-3.36-.71-3.61-.9-1.28-.96-.85-.86-2.71-1.81-.24-.18-1.46-2.38-1.81-2.71.8.32,2.9.57,3.61.9Z"/>
            <path class="cls-35" d="M605.81,256.3c-2.41-1.01-4.99-1.7-7.22-3.16l7.22,3.16Z"/>
            <path class="cls-20" d="M605.81,259.01c-1.47-.59-3.43-.57-4.51-2.26,2.04-1.18,3.49,1.28,4.51,2.26Z"/>
            <path class="cls-4" d="M623.86,246.37c-1.42-.06-2.33-.26-2.71-1.81,1.92-.62,2.11,1.32,2.71,1.81Z"/>
            <g>
              <path class="cls-40" d="M548.94,701.31c-.13.41-.81,1.78-.9,1.81-3.09.93-8.43-1.42-11.73,1.35,14.3-1.77,24.03,2.16,3.61,5.42,2.72.88,14.35-2.62,13.54,2.71-.3,1.98-6.63,2.52.9,2.71.33,7.59.63,15.73-4.06,22.11-2.41-8.93-5.77-22.14-14.44-27.08-3.33-1.9-16.06-3.5-16.7-4.96-.4-.91-1.51-19.07-.9-19.86,1.53-1.97,21.73-7.65,21.21.45-6.5-.91-13,.45-18.5,4.06.49,1.8,18.13-6.53,19.41-1.35-6.35-.36-12.96.64-18.5,4.06.44,1.77,20.6-6.58,21.21-1.35-6.46-.29-13.17,1.12-17.6,5.87,6.26-2.29,11.59-4.93,18.5-4.96l-13.99,5.87,11.28-3.16,4.51,1.81c-5.15-.35-10.65.83-14.89,4.06,4.07,0,16.67-5.87,16.7-.45-3.27-2.05-8.84,0-12.19,1.35,3.72.77,10.03-1.58,13.54-.45Z"/>
              <path class="cls-34" d="M548.04,703.11c.1-.03.77-1.4.9-1.81,1.96.63.82,2.26-.9,1.81Z"/>
              <path class="cls-24" d="M527.73,683.25c1.06-.15,8.56-.17,8.58.45l-14.89,3.16c-.5-1.5,5.94-3.56,6.32-3.61Z"/>
              <path class="cls-5" d="M544.88,704.92c1.2-.03,2.41.02,3.61,0,2.51,1.26-9.16,3.18-10.38,2.26.8-1.1,5.96-2.24,6.77-2.26Z"/>
            </g>
            <path class="cls-19" d="M456.87,703.11l-13.54-5.87c4.28-.88,10.42,3.02,13.54,5.87Z"/>
            <path class="cls-37" d="M613.03,268.04c-3.78-1.43-3.98-2.85-5.42-3.61,1.5,1.18,3.14,1.29,5.42,3.61Z"/>
            <path class="cls-37" d="M607.61,264.42c-.48-.38-.94.25-2.71-1.81,1.57.82,2.34,1.61,2.71,1.81Z"/>
            <path class="cls-24" d="M623.86,249.08c-1.03-.33-2.39.06-2.71-1.81,1.91-.64,2.15,1.37,2.71,1.81Z"/>
            <g>
              <path class="cls-44" d="M510.13,695.89c-5.7-5.84-26.79-10.61-35.2-9.48l35.2,9.48c11.29,11.57-9.78.64-13.09,0-4.97-.96-14.12-.69-19.41-.45,5.51,1.28,33.06,3.43,35.2,9.03,3.22,8.41-5.1,34.4-14.89,38.36-5.18-22.29-10.84-33.47-33.85-40.17,3.24-4.99,6.84-10.73,9.03-16.25,4.78-12.03-2.72-15.22,17.15-9.03l-13.09.45c7.2,1.23,28.15,3.1,33.4,7.22.14.11,2.04,3.96,0,3.61-9.56-7.04-23.07-9.33-34.75-8.58,5.39.7,34.57,6.64,36.11,10.83.49,1.33.44,5.88-1.81,4.96Z"/>
              <g>
                <path class="cls-42" d="M509.23,714.85c-.19-.2-4.63-1.91-5.42-1.35l5.42,3.16c-.09.26.61,2.59-1.35,3.61-4.62-4.24-11.15-5.16-17.15-5.42h10.83l-9.48-3.16,8.58-.45-16.7-3.16c7.32-1.55,20.02,1.29,25.27,6.77Z"/>
                <path class="cls-24" d="M477.18,682.35c11.79,1.71,23.97,3.16,33.85,10.38l-33.85-10.38Z"/>
                <path class="cls-24" d="M510.13,695.89l-35.2-9.48c8.41-1.13,29.5,3.63,35.2,9.48Z"/>
                <path class="cls-24" d="M479.89,701.31c11.45-.81,23.17,1.01,32.04,8.58-10.42-4.79-20.56-7.47-32.04-8.58Z"/>
                <path class="cls-24" d="M479.89,697.7c11,1.7,23.15.36,32.04,8.58l-32.04-8.58Z"/>
                <polygon class="cls-24" points="482.6 704.01 498.85 705.82 510.13 712.59 482.6 704.01"/>
                <path class="cls-42" d="M477.18,692.28c11.58.93,24-.59,33.85,6.77l-11.28-4.06-22.57-2.71Z"/>
                <path class="cls-42" d="M490.72,716.65c6.82-.59,13.11,1.94,18.5,5.87l-18.5-5.87Z"/>
                <path class="cls-19" d="M476.28,689.57c5.92-.23,11.97.3,17.6,2.26-.15.97-16.02-1.35-17.6-2.26Z"/>
                <polygon class="cls-42" points="494.33 722.07 499.75 722.97 507.42 727.93 494.33 722.07"/>
                <path class="cls-42" d="M496.14,719.36c4.49,1.88,10.18,2.41,13.09,6.77l-13.09-6.77Z"/>
                <path class="cls-22" d="M495.23,725.68c3.86-.4,7.46,1.89,10.38,4.06-3.63-.31-7.24-2.39-10.38-4.06Z"/>
                <path class="cls-16" d="M497.94,729.29c2.53.24,5.23,1.01,6.77,3.16-.36,1.09-6.69-1.9-6.77-3.16Z"/>
                <path class="cls-34" d="M497.04,732c1.53-.27,2.25.18,3.16,1.35-.35,1-3.83-.36-3.16-1.35Z"/>
                <path class="cls-6" d="M509.23,716.65c-.07-.57.12-1.67,0-1.81.17.17,2.2-.57,1.81,1.35.16.68-1.78.36-1.81.45Z"/>
                <path class="cls-45" d="M509.23,714.85c.12.13-.07,1.23,0,1.81l-5.42-3.16c.78-.56,5.23,1.15,5.42,1.35Z"/>
              </g>
            </g>
            <g>
              <path class="cls-30" d="M614.84,240.05c.11.11.73,1.61.9,1.81-.76-.29-2.23-.5-3.16-.9l.45,1.81-1.81.45c.51,1.41,2.6,1.24,2.71,1.35,3.09,3.27,3.15,3.36,7.22,5.42.64.93,1.25,1.16,1.81,1.81,1.26,1.46,6.55,3.59,2.71,6.32-.72-.93-1.24-2.01-2.26-2.71l-1.35.45c.84.62,1.28,1.38,1.81,2.26-4.15.08,1.52,2.26,1.35,4.51l-6.77-4.06,2.26,4.06c-3.21-4.48-8.38-5.81-13.09-8.12-.72-.65-3.08-4.14-4.51-1.81-4.11-2.42.54-1.46.9-1.81.18-.17,1.43.38,1.81-.45-.53-.38-.73-.71-.9-1.35-.84-3.12-3.54-5.39,2.71-7.22.74-.22,1.6,1.92,2.71.45-1.48-2.57-2.61-.36-2.71-.45-7.54-7.35,2.7-5.97,7.22-1.81Z"/>
              <g>
                <path class="cls-25" d="M621.15,247.27c.31,1.86,1.68,1.47,2.71,1.81.08.06.71,1.56.9,1.81-.47-.15-1.39.16-1.81,0-.09-.04-1.34-.67-1.81-.9-.56-.8-.94-1.68-1.81-2.26.32-.78,1.82-.36,1.81-.45Z"/>
                <path class="cls-27" d="M625.67,258.11c.66.85,2.38,2.32,1.35,3.61-1.2-1.14-2.29-2.17-3.16-3.61.56-.08,1.61.14,1.81,0Z"/>
                <path class="cls-5" d="M622.96,250.88v.9c-.56-.65-1.16-.88-1.81-1.81.47.24,1.71.87,1.81.9Z"/>
                <path class="cls-28" d="M604.91,249.08c.17.64.37.97.9,1.35-.38.83-1.62.28-1.81.45l-2.71-2.26,3.61.45Z"/>
                <path class="cls-4" d="M607.61,254.5c-1.13-.56-3.26-.72-4.51-1.81,1.43-2.34,3.79,1.16,4.51,1.81Z"/>
                <path class="cls-20" d="M611.23,250.88c.65-.04,1.36.3,1.81-.45-.29-.35-1.17-.84-.9-1.35.32-.62,3.05,1.59,0-2.71,2.61,1.42,5.21,2.66,7.22,4.96h-4.51l4.51,3.61c-3.25.38-5.64-2.65-8.12-4.06Z"/>
                <path class="cls-20" d="M609.87,252.69c2.66,1.03,5.5,2.15,7.67,4.06-2.07.32-7.13-1.83-7.67-4.06Z"/>
                <path class="cls-33" d="M612.13,249.08c-2.27-.36-4.63-1.6-6.32-3.16,1.9-.61,5.52,1.42,6.32,3.16Z"/>
                <path class="cls-17" d="M611.23,250.88c-2.16.13-3.97-.7-5.42-2.26,1.93-1.02,4.08,1.5,5.42,2.26Z"/>
                <path class="cls-24" d="M615.74,241.86c.21.25.71,1.34.9,1.81-1.67.2-2.03-1.17-3.61-.9l-.45-1.81c.93.41,2.4.61,3.16.9Z"/>
                <path class="cls-24" d="M625.67,258.11c-.2.14-1.24-.08-1.81,0-.53-.88-.96-1.63-1.81-2.26l1.35-.45c1.02.7,1.54,1.78,2.26,2.71Z"/>
                <path class="cls-24" d="M613.03,242.76c.09.41.79,1.7.9,1.81-.1-.11-2.2.05-2.71-1.35l1.81-.45Z"/>
                <path class="cls-20" d="M612.13,246.37c-.09-.12-2.19.07-2.71-1.35,1.54-1.68,2.51,1.25,2.71,1.35Z"/>
                <path class="cls-42" d="M607.61,241.86c.1.1,1.23-2.12,2.71.45-1.11,1.47-1.97-.67-2.71-.45Z"/>
                <path class="cls-30" d="M616.64,243.66c.46,1.15,2.02,1.8,1.35,2.71-.74-.54-3.9-1.65-4.06-1.81-.11-.11-.81-1.4-.9-1.81,1.58-.27,1.94,1.1,3.61.9Z"/>
              </g>
            </g>
            <path class="cls-25" d="M616.64,243.66c-.19-.47-.69-1.56-.9-1.81.83.31,1.94-.13,2.71,1.35-.06.69-1.28.39-1.81.45Z"/>
            <path class="cls-37" d="M610.32,263.52c-.44-.34-1.68-1.05-2.71-1.81,1.86.95,1.43.85,2.71,1.81Z"/>
          </g>
        </g>
      </g>
      <path class="cls-14" d="M284.92,794.3c-52.49,12.12-113.55-7.21-130.91-46.17-17.61-39.54,25.56-77.37,28.57-82.02"/>
      <path class="cls-14" d="M285.49,793.92c-52.92-10.06-101.25-35.67-97.83-78.18,2.74-34.02,43.83-52.36,43.83-52.36"/>
      <path class="cls-15" d="M928.1,571.33c4.92,13.21,3.44,97.03-29.71,167.71-40.58,86.52-123.26,111.63-136.42,115.53"/>
    </g>
  </g>
</svg>